<svg width="192" height="38" viewBox="0 0 192 38" fill="none" xmlns="http://www.w3.org/2000/svg">
<path d="M2.63086 9H0.873047V0.46875H2.63086V9ZM3.9082 5.7832C3.9082 4.81055 4.13867 4.02734 4.59961 3.43359C5.06445 2.83984 5.68945 2.54297 6.47461 2.54297C7.16992 2.54297 7.71094 2.78125 8.09766 3.25781L8.16797 2.66016H9.70312V8.78906C9.70312 9.34375 9.57617 9.82617 9.32227 10.2363C9.07227 10.6465 8.71875 10.959 8.26172 11.1738C7.80469 11.3887 7.26953 11.4961 6.65625 11.4961C6.19141 11.4961 5.73828 11.4023 5.29688 11.2148C4.85547 11.0312 4.52148 10.793 4.29492 10.5L5.04492 9.46875C5.4668 9.94141 5.97852 10.1777 6.58008 10.1777C7.0293 10.1777 7.37891 10.0566 7.62891 9.81445C7.87891 9.57617 8.00391 9.23633 8.00391 8.79492V8.45508C7.61328 8.89648 7.09961 9.11719 6.46289 9.11719C5.70117 9.11719 5.08398 8.82031 4.61133 8.22656C4.14258 7.62891 3.9082 6.83789 3.9082 5.85352V5.7832ZM5.60156 5.90625C5.60156 6.48047 5.7168 6.93164 5.94727 7.25977C6.17773 7.58398 6.49414 7.74609 6.89648 7.74609C7.41211 7.74609 7.78125 7.55273 8.00391 7.16602V4.5C7.77734 4.11328 7.41211 3.91992 6.9082 3.91992C6.50195 3.91992 6.18164 4.08594 5.94727 4.41797C5.7168 4.75 5.60156 5.24609 5.60156 5.90625ZM14.5723 4.24805C14.3418 4.2168 14.1387 4.20117 13.9629 4.20117C13.3223 4.20117 12.9023 4.41797 12.7031 4.85156V9H11.0098V2.66016H12.6094L12.6562 3.41602C12.9961 2.83398 13.4668 2.54297 14.0684 2.54297C14.2559 2.54297 14.4316 2.56836 14.5957 2.61914L14.5723 4.24805ZM18.1934 9.11719C17.2637 9.11719 16.5059 8.83203 15.9199 8.26172C15.3379 7.69141 15.0469 6.93164 15.0469 5.98242V5.81836C15.0469 5.18164 15.1699 4.61328 15.416 4.11328C15.6621 3.60938 16.0098 3.22266 16.459 2.95312C16.9121 2.67969 17.4277 2.54297 18.0059 2.54297C18.873 2.54297 19.5547 2.81641 20.0508 3.36328C20.5508 3.91016 20.8008 4.68555 20.8008 5.68945V6.38086H16.7637C16.8184 6.79492 16.9824 7.12695 17.2559 7.37695C17.5332 7.62695 17.8828 7.75195 18.3047 7.75195C18.957 7.75195 19.4668 7.51562 19.834 7.04297L20.666 7.97461C20.4121 8.33398 20.0684 8.61523 19.6348 8.81836C19.2012 9.01758 18.7207 9.11719 18.1934 9.11719ZM18 3.91406C17.6641 3.91406 17.3906 4.02734 17.1797 4.25391C16.9727 4.48047 16.8398 4.80469 16.7812 5.22656H19.1367V5.0918C19.1289 4.7168 19.0273 4.42773 18.832 4.22461C18.6367 4.01758 18.3594 3.91406 18 3.91406ZM23.5605 2.66016V9.3457C23.5605 10.0449 23.375 10.5879 23.0039 10.9746C22.6328 11.3652 22.0977 11.5605 21.3984 11.5605C21.1055 11.5605 20.8262 11.5273 20.5605 11.4609V10.1191C20.7637 10.1543 20.9414 10.1719 21.0938 10.1719C21.6055 10.1719 21.8613 9.90039 21.8613 9.35742V2.66016H23.5605ZM21.7266 1.01953C21.7266 0.765625 21.8105 0.556641 21.9785 0.392578C22.1504 0.228516 22.3828 0.146484 22.6758 0.146484C22.9688 0.146484 23.1992 0.228516 23.3672 0.392578C23.5391 0.556641 23.625 0.765625 23.625 1.01953C23.625 1.27734 23.5371 1.48828 23.3613 1.65234C23.1895 1.81641 22.9609 1.89844 22.6758 1.89844C22.3906 1.89844 22.1602 1.81641 21.9844 1.65234C21.8125 1.48828 21.7266 1.27734 21.7266 1.01953ZM28.5586 9C28.4805 8.84766 28.4238 8.6582 28.3887 8.43164C27.9785 8.88867 27.4453 9.11719 26.7891 9.11719C26.168 9.11719 25.6523 8.9375 25.2422 8.57812C24.8359 8.21875 24.6328 7.76562 24.6328 7.21875C24.6328 6.54688 24.8809 6.03125 25.377 5.67188C25.877 5.3125 26.5977 5.13086 27.5391 5.12695H28.3184V4.76367C28.3184 4.4707 28.2422 4.23633 28.0898 4.06055C27.9414 3.88477 27.7051 3.79688 27.3809 3.79688C27.0957 3.79688 26.8711 3.86523 26.707 4.00195C26.5469 4.13867 26.4668 4.32617 26.4668 4.56445H24.7734C24.7734 4.19727 24.8867 3.85742 25.1133 3.54492C25.3398 3.23242 25.6602 2.98828 26.0742 2.8125C26.4883 2.63281 26.9531 2.54297 27.4688 2.54297C28.25 2.54297 28.8691 2.74023 29.3262 3.13477C29.7871 3.52539 30.0176 4.07617 30.0176 4.78711V7.53516C30.0215 8.13672 30.1055 8.5918 30.2695 8.90039V9H28.5586ZM27.1582 7.82227C27.4082 7.82227 27.6387 7.76758 27.8496 7.6582C28.0605 7.54492 28.2168 7.39453 28.3184 7.20703V6.11719H27.6855C26.8379 6.11719 26.3867 6.41016 26.332 6.99609L26.3262 7.0957C26.3262 7.30664 26.4004 7.48047 26.5488 7.61719C26.6973 7.75391 26.9004 7.82227 27.1582 7.82227ZM36.1758 5.99414V9H34.418V0.46875H37.7461C38.3867 0.46875 38.9492 0.585938 39.4336 0.820312C39.9219 1.05469 40.2969 1.38867 40.5586 1.82227C40.8203 2.25195 40.9512 2.74219 40.9512 3.29297C40.9512 4.12891 40.6641 4.78906 40.0898 5.27344C39.5195 5.75391 38.7285 5.99414 37.7168 5.99414H36.1758ZM36.1758 4.57031H37.7461C38.2109 4.57031 38.5645 4.46094 38.8066 4.24219C39.0527 4.02344 39.1758 3.71094 39.1758 3.30469C39.1758 2.88672 39.0527 2.54883 38.8066 2.29102C38.5605 2.0332 38.2207 1.90039 37.7871 1.89258H36.1758V4.57031ZM45.6152 4.24805C45.3848 4.2168 45.1816 4.20117 45.0059 4.20117C44.3652 4.20117 43.9453 4.41797 43.7461 4.85156V9H42.0527V2.66016H43.6523L43.6992 3.41602C44.0391 2.83398 44.5098 2.54297 45.1113 2.54297C45.2988 2.54297 45.4746 2.56836 45.6387 2.61914L45.6152 4.24805ZM49.2363 9.11719C48.3066 9.11719 47.5488 8.83203 46.9629 8.26172C46.3809 7.69141 46.0898 6.93164 46.0898 5.98242V5.81836C46.0898 5.18164 46.2129 4.61328 46.459 4.11328C46.7051 3.60938 47.0527 3.22266 47.502 2.95312C47.9551 2.67969 48.4707 2.54297 49.0488 2.54297C49.916 2.54297 50.5977 2.81641 51.0938 3.36328C51.5938 3.91016 51.8438 4.68555 51.8438 5.68945V6.38086H47.8066C47.8613 6.79492 48.0254 7.12695 48.2988 7.37695C48.5762 7.62695 48.9258 7.75195 49.3477 7.75195C50 7.75195 50.5098 7.51562 50.877 7.04297L51.709 7.97461C51.4551 8.33398 51.1113 8.61523 50.6777 8.81836C50.2441 9.01758 49.7637 9.11719 49.2363 9.11719ZM49.043 3.91406C48.707 3.91406 48.4336 4.02734 48.2227 4.25391C48.0156 4.48047 47.8828 4.80469 47.8242 5.22656H50.1797V5.0918C50.1719 4.7168 50.0703 4.42773 49.875 4.22461C49.6797 4.01758 49.4023 3.91406 49.043 3.91406ZM56.2441 7.24805C56.2441 7.04102 56.1406 6.87891 55.9336 6.76172C55.7305 6.64062 55.4023 6.5332 54.9492 6.43945C53.4414 6.12305 52.6875 5.48242 52.6875 4.51758C52.6875 3.95508 52.9199 3.48633 53.3848 3.11133C53.8535 2.73242 54.4648 2.54297 55.2188 2.54297C56.0234 2.54297 56.666 2.73242 57.1465 3.11133C57.6309 3.49023 57.873 3.98242 57.873 4.58789H56.1797C56.1797 4.3457 56.1016 4.14648 55.9453 3.99023C55.7891 3.83008 55.5449 3.75 55.2129 3.75C54.9277 3.75 54.707 3.81445 54.5508 3.94336C54.3945 4.07227 54.3164 4.23633 54.3164 4.43555C54.3164 4.62305 54.4043 4.77539 54.5801 4.89258C54.7598 5.00586 55.0605 5.10547 55.4824 5.19141C55.9043 5.27344 56.2598 5.36719 56.5488 5.47266C57.4434 5.80078 57.8906 6.36914 57.8906 7.17773C57.8906 7.75586 57.6426 8.22461 57.1465 8.58398C56.6504 8.93945 56.0098 9.11719 55.2246 9.11719C54.6934 9.11719 54.2207 9.02344 53.8066 8.83594C53.3965 8.64453 53.0742 8.38477 52.8398 8.05664C52.6055 7.72461 52.4883 7.36719 52.4883 6.98438H54.0938C54.1094 7.28516 54.2207 7.51562 54.4277 7.67578C54.6348 7.83594 54.9121 7.91602 55.2598 7.91602C55.584 7.91602 55.8281 7.85547 55.9922 7.73438C56.1602 7.60938 56.2441 7.44727 56.2441 7.24805ZM64.6992 5.88867C64.6992 6.9043 64.4824 7.69727 64.0488 8.26758C63.6152 8.83398 63.0098 9.11719 62.2324 9.11719C61.5449 9.11719 60.9961 8.85352 60.5859 8.32617L60.5098 9H58.9863V0H60.6797V3.22852C61.0703 2.77148 61.584 2.54297 62.2207 2.54297C62.9941 2.54297 63.5996 2.82812 64.0371 3.39844C64.4785 3.96484 64.6992 4.76367 64.6992 5.79492V5.88867ZM63.0059 5.76562C63.0059 5.125 62.9043 4.6582 62.7012 4.36523C62.498 4.06836 62.1953 3.91992 61.793 3.91992C61.2539 3.91992 60.8828 4.14062 60.6797 4.58203V7.08398C60.8867 7.5293 61.2617 7.75195 61.8047 7.75195C62.3516 7.75195 62.7109 7.48242 62.8828 6.94336C62.9648 6.68555 63.0059 6.29297 63.0059 5.76562ZM67.5352 9H65.8359V2.66016H67.5352V9ZM65.7363 1.01953C65.7363 0.765625 65.8203 0.556641 65.9883 0.392578C66.1602 0.228516 66.3926 0.146484 66.6855 0.146484C66.9746 0.146484 67.2051 0.228516 67.377 0.392578C67.5488 0.556641 67.6348 0.765625 67.6348 1.01953C67.6348 1.27734 67.5469 1.48828 67.3711 1.65234C67.1992 1.81641 66.9707 1.89844 66.6855 1.89844C66.4004 1.89844 66.1699 1.81641 65.9941 1.65234C65.8223 1.48828 65.7363 1.27734 65.7363 1.01953ZM70.9629 1.10156V2.66016H72.0469V3.90234H70.9629V7.06641C70.9629 7.30078 71.0078 7.46875 71.0977 7.57031C71.1875 7.67188 71.3594 7.72266 71.6133 7.72266C71.8008 7.72266 71.9668 7.70898 72.1113 7.68164V8.96484C71.7793 9.06641 71.4375 9.11719 71.0859 9.11719C69.8984 9.11719 69.293 8.51758 69.2695 7.31836V3.90234H68.3438V2.66016H69.2695V1.10156H70.9629ZM75.9082 9.11719C74.9785 9.11719 74.2207 8.83203 73.6348 8.26172C73.0527 7.69141 72.7617 6.93164 72.7617 5.98242V5.81836C72.7617 5.18164 72.8848 4.61328 73.1309 4.11328C73.377 3.60938 73.7246 3.22266 74.1738 2.95312C74.627 2.67969 75.1426 2.54297 75.7207 2.54297C76.5879 2.54297 77.2695 2.81641 77.7656 3.36328C78.2656 3.91016 78.5156 4.68555 78.5156 5.68945V6.38086H74.4785C74.5332 6.79492 74.6973 7.12695 74.9707 7.37695C75.248 7.62695 75.5977 7.75195 76.0195 7.75195C76.6719 7.75195 77.1816 7.51562 77.5488 7.04297L78.3809 7.97461C78.127 8.33398 77.7832 8.61523 77.3496 8.81836C76.916 9.01758 76.4355 9.11719 75.9082 9.11719ZM75.7148 3.91406C75.3789 3.91406 75.1055 4.02734 74.8945 4.25391C74.6875 4.48047 74.5547 4.80469 74.4961 5.22656H76.8516V5.0918C76.8438 4.7168 76.7422 4.42773 76.5469 4.22461C76.3516 4.01758 76.0742 3.91406 75.7148 3.91406ZM83.0449 4.24805C82.8145 4.2168 82.6113 4.20117 82.4355 4.20117C81.7949 4.20117 81.375 4.41797 81.1758 4.85156V9H79.4824V2.66016H81.082L81.1289 3.41602C81.4688 2.83398 81.9395 2.54297 82.541 2.54297C82.7285 2.54297 82.9043 2.56836 83.0684 2.61914L83.0449 4.24805ZM85.6523 9H83.9531V2.66016H85.6523V9ZM83.8535 1.01953C83.8535 0.765625 83.9375 0.556641 84.1055 0.392578C84.2773 0.228516 84.5098 0.146484 84.8027 0.146484C85.0918 0.146484 85.3223 0.228516 85.4941 0.392578C85.666 0.556641 85.752 0.765625 85.752 1.01953C85.752 1.27734 85.6641 1.48828 85.4883 1.65234C85.3164 1.81641 85.0879 1.89844 84.8027 1.89844C84.5176 1.89844 84.2871 1.81641 84.1113 1.65234C83.9395 1.48828 83.8535 1.27734 83.8535 1.01953ZM90.7266 9C90.6484 8.84766 90.5918 8.6582 90.5566 8.43164C90.1465 8.88867 89.6133 9.11719 88.957 9.11719C88.3359 9.11719 87.8203 8.9375 87.4102 8.57812C87.0039 8.21875 86.8008 7.76562 86.8008 7.21875C86.8008 6.54688 87.0488 6.03125 87.5449 5.67188C88.0449 5.3125 88.7656 5.13086 89.707 5.12695H90.4863V4.76367C90.4863 4.4707 90.4102 4.23633 90.2578 4.06055C90.1094 3.88477 89.873 3.79688 89.5488 3.79688C89.2637 3.79688 89.0391 3.86523 88.875 4.00195C88.7148 4.13867 88.6348 4.32617 88.6348 4.56445H86.9414C86.9414 4.19727 87.0547 3.85742 87.2812 3.54492C87.5078 3.23242 87.8281 2.98828 88.2422 2.8125C88.6562 2.63281 89.1211 2.54297 89.6367 2.54297C90.418 2.54297 91.0371 2.74023 91.4941 3.13477C91.9551 3.52539 92.1855 4.07617 92.1855 4.78711V7.53516C92.1895 8.13672 92.2734 8.5918 92.4375 8.90039V9H90.7266ZM89.3262 7.82227C89.5762 7.82227 89.8066 7.76758 90.0176 7.6582C90.2285 7.54492 90.3848 7.39453 90.4863 7.20703V6.11719H89.8535C89.0059 6.11719 88.5547 6.41016 88.5 6.99609L88.4941 7.0957C88.4941 7.30664 88.5684 7.48047 88.7168 7.61719C88.8652 7.75391 89.0684 7.82227 89.3262 7.82227ZM95.0449 2.66016L95.0977 3.39258C95.5508 2.82617 96.1582 2.54297 96.9199 2.54297C97.5918 2.54297 98.0918 2.74023 98.4199 3.13477C98.748 3.5293 98.916 4.11914 98.9238 4.9043V9H97.2305V4.94531C97.2305 4.58594 97.1523 4.32617 96.9961 4.16602C96.8398 4.00195 96.5801 3.91992 96.2168 3.91992C95.7402 3.91992 95.3828 4.12305 95.1445 4.5293V9H93.4512V2.66016H95.0449ZM103.887 9C103.809 8.84766 103.752 8.6582 103.717 8.43164C103.307 8.88867 102.773 9.11719 102.117 9.11719C101.496 9.11719 100.98 8.9375 100.57 8.57812C100.164 8.21875 99.9609 7.76562 99.9609 7.21875C99.9609 6.54688 100.209 6.03125 100.705 5.67188C101.205 5.3125 101.926 5.13086 102.867 5.12695H103.646V4.76367C103.646 4.4707 103.57 4.23633 103.418 4.06055C103.27 3.88477 103.033 3.79688 102.709 3.79688C102.424 3.79688 102.199 3.86523 102.035 4.00195C101.875 4.13867 101.795 4.32617 101.795 4.56445H100.102C100.102 4.19727 100.215 3.85742 100.441 3.54492C100.668 3.23242 100.988 2.98828 101.402 2.8125C101.816 2.63281 102.281 2.54297 102.797 2.54297C103.578 2.54297 104.197 2.74023 104.654 3.13477C105.115 3.52539 105.346 4.07617 105.346 4.78711V7.53516C105.35 8.13672 105.434 8.5918 105.598 8.90039V9H103.887ZM102.486 7.82227C102.736 7.82227 102.967 7.76758 103.178 7.6582C103.389 7.54492 103.545 7.39453 103.646 7.20703V6.11719H103.014C102.166 6.11719 101.715 6.41016 101.66 6.99609L101.654 7.0957C101.654 7.30664 101.729 7.48047 101.877 7.61719C102.025 7.75391 102.229 7.82227 102.486 7.82227ZM116.443 6.1582C116.377 7.07617 116.037 7.79883 115.424 8.32617C114.814 8.85352 114.01 9.11719 113.01 9.11719C111.916 9.11719 111.055 8.75 110.426 8.01562C109.801 7.27734 109.488 6.26562 109.488 4.98047V4.45898C109.488 3.63867 109.633 2.91602 109.922 2.29102C110.211 1.66602 110.623 1.1875 111.158 0.855469C111.697 0.519531 112.322 0.351562 113.033 0.351562C114.018 0.351562 114.811 0.615234 115.412 1.14258C116.014 1.66992 116.361 2.41016 116.455 3.36328H114.697C114.654 2.8125 114.5 2.41406 114.234 2.16797C113.973 1.91797 113.572 1.79297 113.033 1.79297C112.447 1.79297 112.008 2.00391 111.715 2.42578C111.426 2.84375 111.277 3.49414 111.27 4.37695V5.02148C111.27 5.94336 111.408 6.61719 111.686 7.04297C111.967 7.46875 112.408 7.68164 113.01 7.68164C113.553 7.68164 113.957 7.55859 114.223 7.3125C114.492 7.0625 114.646 6.67773 114.686 6.1582H116.443ZM117.223 5.77148C117.223 5.14258 117.344 4.58203 117.586 4.08984C117.828 3.59766 118.176 3.2168 118.629 2.94727C119.086 2.67773 119.615 2.54297 120.217 2.54297C121.072 2.54297 121.77 2.80469 122.309 3.32812C122.852 3.85156 123.154 4.5625 123.217 5.46094L123.229 5.89453C123.229 6.86719 122.957 7.64844 122.414 8.23828C121.871 8.82422 121.143 9.11719 120.229 9.11719C119.314 9.11719 118.584 8.82422 118.037 8.23828C117.494 7.65234 117.223 6.85547 117.223 5.84766V5.77148ZM118.916 5.89453C118.916 6.49609 119.029 6.95703 119.256 7.27734C119.482 7.59375 119.807 7.75195 120.229 7.75195C120.639 7.75195 120.959 7.5957 121.189 7.2832C121.42 6.9668 121.535 6.46289 121.535 5.77148C121.535 5.18164 121.42 4.72461 121.189 4.40039C120.959 4.07617 120.635 3.91406 120.217 3.91406C119.803 3.91406 119.482 4.07617 119.256 4.40039C119.029 4.7207 118.916 5.21875 118.916 5.89453ZM125.83 2.66016L125.883 3.39258C126.336 2.82617 126.943 2.54297 127.705 2.54297C128.377 2.54297 128.877 2.74023 129.205 3.13477C129.533 3.5293 129.701 4.11914 129.709 4.9043V9H128.016V4.94531C128.016 4.58594 127.938 4.32617 127.781 4.16602C127.625 4.00195 127.365 3.91992 127.002 3.91992C126.525 3.91992 126.168 4.12305 125.93 4.5293V9H124.236V2.66016H125.83ZM134.432 7.24805C134.432 7.04102 134.328 6.87891 134.121 6.76172C133.918 6.64062 133.59 6.5332 133.137 6.43945C131.629 6.12305 130.875 5.48242 130.875 4.51758C130.875 3.95508 131.107 3.48633 131.572 3.11133C132.041 2.73242 132.652 2.54297 133.406 2.54297C134.211 2.54297 134.854 2.73242 135.334 3.11133C135.818 3.49023 136.061 3.98242 136.061 4.58789H134.367C134.367 4.3457 134.289 4.14648 134.133 3.99023C133.977 3.83008 133.732 3.75 133.4 3.75C133.115 3.75 132.895 3.81445 132.738 3.94336C132.582 4.07227 132.504 4.23633 132.504 4.43555C132.504 4.62305 132.592 4.77539 132.768 4.89258C132.947 5.00586 133.248 5.10547 133.67 5.19141C134.092 5.27344 134.447 5.36719 134.736 5.47266C135.631 5.80078 136.078 6.36914 136.078 7.17773C136.078 7.75586 135.83 8.22461 135.334 8.58398C134.838 8.93945 134.197 9.11719 133.412 9.11719C132.881 9.11719 132.408 9.02344 131.994 8.83594C131.584 8.64453 131.262 8.38477 131.027 8.05664C130.793 7.72461 130.676 7.36719 130.676 6.98438H132.281C132.297 7.28516 132.408 7.51562 132.615 7.67578C132.822 7.83594 133.1 7.91602 133.447 7.91602C133.771 7.91602 134.016 7.85547 134.18 7.73438C134.348 7.60938 134.432 7.44727 134.432 7.24805ZM140.092 9.11719C139.162 9.11719 138.404 8.83203 137.818 8.26172C137.236 7.69141 136.945 6.93164 136.945 5.98242V5.81836C136.945 5.18164 137.068 4.61328 137.314 4.11328C137.561 3.60938 137.908 3.22266 138.357 2.95312C138.811 2.67969 139.326 2.54297 139.904 2.54297C140.771 2.54297 141.453 2.81641 141.949 3.36328C142.449 3.91016 142.699 4.68555 142.699 5.68945V6.38086H138.662C138.717 6.79492 138.881 7.12695 139.154 7.37695C139.432 7.62695 139.781 7.75195 140.203 7.75195C140.855 7.75195 141.365 7.51562 141.732 7.04297L142.564 7.97461C142.311 8.33398 141.967 8.61523 141.533 8.81836C141.1 9.01758 140.619 9.11719 140.092 9.11719ZM139.898 3.91406C139.562 3.91406 139.289 4.02734 139.078 4.25391C138.871 4.48047 138.738 4.80469 138.68 5.22656H141.035V5.0918C141.027 4.7168 140.926 4.42773 140.73 4.22461C140.535 4.01758 140.258 3.91406 139.898 3.91406ZM147.229 4.24805C146.998 4.2168 146.795 4.20117 146.619 4.20117C145.979 4.20117 145.559 4.41797 145.359 4.85156V9H143.666V2.66016H145.266L145.312 3.41602C145.652 2.83398 146.123 2.54297 146.725 2.54297C146.912 2.54297 147.088 2.56836 147.252 2.61914L147.229 4.24805ZM150.527 6.93164L151.705 2.66016H153.475L151.336 9H149.719L147.58 2.66016H149.35L150.527 6.93164ZM157.805 9C157.727 8.84766 157.67 8.6582 157.635 8.43164C157.225 8.88867 156.691 9.11719 156.035 9.11719C155.414 9.11719 154.898 8.9375 154.488 8.57812C154.082 8.21875 153.879 7.76562 153.879 7.21875C153.879 6.54688 154.127 6.03125 154.623 5.67188C155.123 5.3125 155.844 5.13086 156.785 5.12695H157.564V4.76367C157.564 4.4707 157.488 4.23633 157.336 4.06055C157.188 3.88477 156.951 3.79688 156.627 3.79688C156.342 3.79688 156.117 3.86523 155.953 4.00195C155.793 4.13867 155.713 4.32617 155.713 4.56445H154.02C154.02 4.19727 154.133 3.85742 154.359 3.54492C154.586 3.23242 154.906 2.98828 155.32 2.8125C155.734 2.63281 156.199 2.54297 156.715 2.54297C157.496 2.54297 158.115 2.74023 158.572 3.13477C159.033 3.52539 159.264 4.07617 159.264 4.78711V7.53516C159.268 8.13672 159.352 8.5918 159.516 8.90039V9H157.805ZM156.404 7.82227C156.654 7.82227 156.885 7.76758 157.096 7.6582C157.307 7.54492 157.463 7.39453 157.564 7.20703V6.11719H156.932C156.084 6.11719 155.633 6.41016 155.578 6.99609L155.572 7.0957C155.572 7.30664 155.646 7.48047 155.795 7.61719C155.943 7.75391 156.146 7.82227 156.404 7.82227ZM160.301 5.7832C160.301 4.79492 160.521 4.00781 160.963 3.42188C161.408 2.83594 162.016 2.54297 162.785 2.54297C163.402 2.54297 163.912 2.77344 164.314 3.23438V0H166.014V9H164.484L164.402 8.32617C163.98 8.85352 163.438 9.11719 162.773 9.11719C162.027 9.11719 161.428 8.82422 160.975 8.23828C160.525 7.64844 160.301 6.83008 160.301 5.7832ZM161.994 5.90625C161.994 6.5 162.098 6.95508 162.305 7.27148C162.512 7.58789 162.812 7.74609 163.207 7.74609C163.73 7.74609 164.1 7.52539 164.314 7.08398V4.58203C164.104 4.14062 163.738 3.91992 163.219 3.91992C162.402 3.91992 161.994 4.58203 161.994 5.90625ZM167.062 5.77148C167.062 5.14258 167.184 4.58203 167.426 4.08984C167.668 3.59766 168.016 3.2168 168.469 2.94727C168.926 2.67773 169.455 2.54297 170.057 2.54297C170.912 2.54297 171.609 2.80469 172.148 3.32812C172.691 3.85156 172.994 4.5625 173.057 5.46094L173.068 5.89453C173.068 6.86719 172.797 7.64844 172.254 8.23828C171.711 8.82422 170.982 9.11719 170.068 9.11719C169.154 9.11719 168.424 8.82422 167.877 8.23828C167.334 7.65234 167.062 6.85547 167.062 5.84766V5.77148ZM168.756 5.89453C168.756 6.49609 168.869 6.95703 169.096 7.27734C169.322 7.59375 169.646 7.75195 170.068 7.75195C170.479 7.75195 170.799 7.5957 171.029 7.2832C171.26 6.9668 171.375 6.46289 171.375 5.77148C171.375 5.18164 171.26 4.72461 171.029 4.40039C170.799 4.07617 170.475 3.91406 170.057 3.91406C169.643 3.91406 169.322 4.07617 169.096 4.40039C168.869 4.7207 168.756 5.21875 168.756 5.89453ZM177.674 4.24805C177.443 4.2168 177.24 4.20117 177.064 4.20117C176.424 4.20117 176.004 4.41797 175.805 4.85156V9H174.111V2.66016H175.711L175.758 3.41602C176.098 2.83398 176.568 2.54297 177.17 2.54297C177.357 2.54297 177.533 2.56836 177.697 2.61914L177.674 4.24805ZM181.992 9C181.914 8.84766 181.857 8.6582 181.822 8.43164C181.412 8.88867 180.879 9.11719 180.223 9.11719C179.602 9.11719 179.086 8.9375 178.676 8.57812C178.27 8.21875 178.066 7.76562 178.066 7.21875C178.066 6.54688 178.314 6.03125 178.811 5.67188C179.311 5.3125 180.031 5.13086 180.973 5.12695H181.752V4.76367C181.752 4.4707 181.676 4.23633 181.523 4.06055C181.375 3.88477 181.139 3.79688 180.814 3.79688C180.529 3.79688 180.305 3.86523 180.141 4.00195C179.98 4.13867 179.9 4.32617 179.9 4.56445H178.207C178.207 4.19727 178.32 3.85742 178.547 3.54492C178.773 3.23242 179.094 2.98828 179.508 2.8125C179.922 2.63281 180.387 2.54297 180.902 2.54297C181.684 2.54297 182.303 2.74023 182.76 3.13477C183.221 3.52539 183.451 4.07617 183.451 4.78711V7.53516C183.455 8.13672 183.539 8.5918 183.703 8.90039V9H181.992ZM180.592 7.82227C180.842 7.82227 181.072 7.76758 181.283 7.6582C181.494 7.54492 181.65 7.39453 181.752 7.20703V6.11719H181.119C180.271 6.11719 179.82 6.41016 179.766 6.99609L179.76 7.0957C179.76 7.30664 179.834 7.48047 179.982 7.61719C180.131 7.75391 180.334 7.82227 180.592 7.82227ZM8.40234 19.9375H11.918V31.75C11.918 32.8359 11.6758 33.7969 11.1914 34.6328C10.7148 35.4609 10.0391 36.1016 9.16406 36.5547C8.28906 37.0078 7.30078 37.2344 6.19922 37.2344C4.39453 37.2344 2.98828 36.7773 1.98047 35.8633C0.972656 34.9414 0.46875 33.6406 0.46875 31.9609H4.00781C4.00781 32.7969 4.18359 33.4141 4.53516 33.8125C4.88672 34.2109 5.44141 34.4102 6.19922 34.4102C6.87109 34.4102 7.40625 34.1797 7.80469 33.7188C8.20312 33.2578 8.40234 32.6016 8.40234 31.75V19.9375ZM22.0547 37C21.8984 36.6953 21.7852 36.3164 21.7148 35.8633C20.8945 36.7773 19.8281 37.2344 18.5156 37.2344C17.2734 37.2344 16.2422 36.875 15.4219 36.1562C14.6094 35.4375 14.2031 34.5312 14.2031 33.4375C14.2031 32.0938 14.6992 31.0625 15.6914 30.3438C16.6914 29.625 18.1328 29.2617 20.0156 29.2539H21.5742V28.5273C21.5742 27.9414 21.4219 27.4727 21.1172 27.1211C20.8203 26.7695 20.3477 26.5938 19.6992 26.5938C19.1289 26.5938 18.6797 26.7305 18.3516 27.0039C18.0312 27.2773 17.8711 27.6523 17.8711 28.1289H14.4844C14.4844 27.3945 14.7109 26.7148 15.1641 26.0898C15.6172 25.4648 16.2578 24.9766 17.0859 24.625C17.9141 24.2656 18.8438 24.0859 19.875 24.0859C21.4375 24.0859 22.6758 24.4805 23.5898 25.2695C24.5117 26.0508 24.9727 27.1523 24.9727 28.5742V34.0703C24.9805 35.2734 25.1484 36.1836 25.4766 36.8008V37H22.0547ZM19.2539 34.6445C19.7539 34.6445 20.2148 34.5352 20.6367 34.3164C21.0586 34.0898 21.3711 33.7891 21.5742 33.4141V31.2344H20.3086C18.6133 31.2344 17.7109 31.8203 17.6016 32.9922L17.5898 33.1914C17.5898 33.6133 17.7383 33.9609 18.0352 34.2344C18.332 34.5078 18.7383 34.6445 19.2539 34.6445ZM34.6992 27.4961C34.2383 27.4336 33.832 27.4023 33.4805 27.4023C32.1992 27.4023 31.3594 27.8359 30.9609 28.7031V37H27.5742V24.3203H30.7734L30.8672 25.832C31.5469 24.668 32.4883 24.0859 33.6914 24.0859C34.0664 24.0859 34.418 24.1367 34.7461 24.2383L34.6992 27.4961ZM35.5781 30.5664C35.5781 28.5898 36.0195 27.0156 36.9023 25.8438C37.793 24.6719 39.0078 24.0859 40.5469 24.0859C41.7812 24.0859 42.8008 24.5469 43.6055 25.4688V19H47.0039V37H43.9453L43.7812 35.6523C42.9375 36.707 41.8516 37.2344 40.5234 37.2344C39.0312 37.2344 37.832 36.6484 36.9258 35.4766C36.0273 34.2969 35.5781 32.6602 35.5781 30.5664ZM38.9648 30.8125C38.9648 32 39.1719 32.9102 39.5859 33.543C40 34.1758 40.6016 34.4922 41.3906 34.4922C42.4375 34.4922 43.1758 34.0508 43.6055 33.168V28.1641C43.1836 27.2812 42.4531 26.8398 41.4141 26.8398C39.7812 26.8398 38.9648 28.1641 38.9648 30.8125ZM53.2031 37H49.8047V24.3203H53.2031V37ZM49.6055 21.0391C49.6055 20.5312 49.7734 20.1133 50.1094 19.7852C50.4531 19.457 50.918 19.293 51.5039 19.293C52.082 19.293 52.543 19.457 52.8867 19.7852C53.2305 20.1133 53.4023 20.5312 53.4023 21.0391C53.4023 21.5547 53.2266 21.9766 52.875 22.3047C52.5312 22.6328 52.0742 22.7969 51.5039 22.7969C50.9336 22.7969 50.4727 22.6328 50.1211 22.3047C49.7773 21.9766 49.6055 21.5547 49.6055 21.0391ZM59.1797 24.3203L59.2852 25.7383C60.1836 24.6367 61.3984 24.0859 62.9297 24.0859C64.5625 24.0859 65.6836 24.7305 66.293 26.0195C67.1836 24.7305 68.4531 24.0859 70.1016 24.0859C71.4766 24.0859 72.5 24.4883 73.1719 25.293C73.8438 26.0898 74.1797 27.293 74.1797 28.9023V37H70.7812V28.9141C70.7812 28.1953 70.6406 27.6719 70.3594 27.3438C70.0781 27.0078 69.582 26.8398 68.8711 26.8398C67.8555 26.8398 67.1523 27.3242 66.7617 28.293L66.7734 37H63.3867V28.9258C63.3867 28.1914 63.2422 27.6602 62.9531 27.332C62.6641 27.0039 62.1719 26.8398 61.4766 26.8398C60.5156 26.8398 59.8203 27.2383 59.3906 28.0352V37H56.0039V24.3203H59.1797ZM91.8398 32.5234C91.8398 31.8594 91.6055 31.3516 91.1367 31C90.668 30.6406 89.8242 30.2656 88.6055 29.875C87.3867 29.4766 86.4219 29.0859 85.7109 28.7031C83.7734 27.6562 82.8047 26.2461 82.8047 24.4727C82.8047 23.5508 83.0625 22.7305 83.5781 22.0117C84.1016 21.2852 84.8477 20.7188 85.8164 20.3125C86.793 19.9062 87.8867 19.7031 89.0977 19.7031C90.3164 19.7031 91.4023 19.9258 92.3555 20.3711C93.3086 20.8086 94.0469 21.4297 94.5703 22.2344C95.1016 23.0391 95.3672 23.9531 95.3672 24.9766H91.8516C91.8516 24.1953 91.6055 23.5898 91.1133 23.1602C90.6211 22.7227 89.9297 22.5039 89.0391 22.5039C88.1797 22.5039 87.5117 22.6875 87.0352 23.0547C86.5586 23.4141 86.3203 23.8906 86.3203 24.4844C86.3203 25.0391 86.5977 25.5039 87.1523 25.8789C87.7148 26.2539 88.5391 26.6055 89.625 26.9336C91.625 27.5352 93.082 28.2812 93.9961 29.1719C94.9102 30.0625 95.3672 31.1719 95.3672 32.5C95.3672 33.9766 94.8086 35.1367 93.6914 35.9805C92.5742 36.8164 91.0703 37.2344 89.1797 37.2344C87.8672 37.2344 86.6719 36.9961 85.5938 36.5195C84.5156 36.0352 83.6914 35.375 83.1211 34.5391C82.5586 33.7031 82.2773 32.7344 82.2773 31.6328H85.8047C85.8047 33.5156 86.9297 34.457 89.1797 34.457C90.0156 34.457 90.668 34.2891 91.1367 33.9531C91.6055 33.6094 91.8398 33.1328 91.8398 32.5234ZM104.883 37C104.727 36.6953 104.613 36.3164 104.543 35.8633C103.723 36.7773 102.656 37.2344 101.344 37.2344C100.102 37.2344 99.0703 36.875 98.25 36.1562C97.4375 35.4375 97.0312 34.5312 97.0312 33.4375C97.0312 32.0938 97.5273 31.0625 98.5195 30.3438C99.5195 29.625 100.961 29.2617 102.844 29.2539H104.402V28.5273C104.402 27.9414 104.25 27.4727 103.945 27.1211C103.648 26.7695 103.176 26.5938 102.527 26.5938C101.957 26.5938 101.508 26.7305 101.18 27.0039C100.859 27.2773 100.699 27.6523 100.699 28.1289H97.3125C97.3125 27.3945 97.5391 26.7148 97.9922 26.0898C98.4453 25.4648 99.0859 24.9766 99.9141 24.625C100.742 24.2656 101.672 24.0859 102.703 24.0859C104.266 24.0859 105.504 24.4805 106.418 25.2695C107.34 26.0508 107.801 27.1523 107.801 28.5742V34.0703C107.809 35.2734 107.977 36.1836 108.305 36.8008V37H104.883ZM102.082 34.6445C102.582 34.6445 103.043 34.5352 103.465 34.3164C103.887 34.0898 104.199 33.7891 104.402 33.4141V31.2344H103.137C101.441 31.2344 100.539 31.8203 100.43 32.9922L100.418 33.1914C100.418 33.6133 100.566 33.9609 100.863 34.2344C101.16 34.5078 101.566 34.6445 102.082 34.6445ZM107.098 19.1523C107.098 20.0352 106.84 20.7773 106.324 21.3789C105.809 21.9727 105.18 22.2695 104.438 22.2695C104.141 22.2695 103.875 22.2383 103.641 22.1758C103.414 22.1055 103.098 21.9609 102.691 21.7422C102.285 21.5234 101.992 21.3906 101.812 21.3438C101.633 21.2891 101.438 21.2617 101.227 21.2617C100.953 21.2617 100.719 21.3594 100.523 21.5547C100.336 21.75 100.242 22.0273 100.242 22.3867L98.2734 22.2695C98.2734 21.4023 98.5273 20.6641 99.0352 20.0547C99.5508 19.4453 100.18 19.1406 100.922 19.1406C101.156 19.1406 101.375 19.1719 101.578 19.2344C101.789 19.2891 102.129 19.4297 102.598 19.6562C103.066 19.8828 103.391 20.0195 103.57 20.0664C103.75 20.1133 103.938 20.1367 104.133 20.1367C104.406 20.1367 104.641 20.043 104.836 19.8555C105.039 19.6602 105.141 19.3828 105.141 19.0234L107.098 19.1523ZM109.875 30.543C109.875 29.2852 110.117 28.1641 110.602 27.1797C111.086 26.1953 111.781 25.4336 112.688 24.8945C113.602 24.3555 114.66 24.0859 115.863 24.0859C117.574 24.0859 118.969 24.6094 120.047 25.6562C121.133 26.7031 121.738 28.125 121.863 29.9219L121.887 30.7891C121.887 32.7344 121.344 34.2969 120.258 35.4766C119.172 36.6484 117.715 37.2344 115.887 37.2344C114.059 37.2344 112.598 36.6484 111.504 35.4766C110.418 34.3047 109.875 32.7109 109.875 30.6953V30.543ZM113.262 30.7891C113.262 31.9922 113.488 32.9141 113.941 33.5547C114.395 34.1875 115.043 34.5039 115.887 34.5039C116.707 34.5039 117.348 34.1914 117.809 33.5664C118.27 32.9336 118.5 31.9258 118.5 30.543C118.5 29.3633 118.27 28.4492 117.809 27.8008C117.348 27.1523 116.699 26.8281 115.863 26.8281C115.035 26.8281 114.395 27.1523 113.941 27.8008C113.488 28.4414 113.262 29.4375 113.262 30.7891ZM133.688 30.9883V37H130.172V19.9375H136.828C138.109 19.9375 139.234 20.1719 140.203 20.6406C141.18 21.1094 141.93 21.7773 142.453 22.6445C142.977 23.5039 143.238 24.4844 143.238 25.5859C143.238 27.2578 142.664 28.5781 141.516 29.5469C140.375 30.5078 138.793 30.9883 136.77 30.9883H133.688ZM133.688 28.1406H136.828C137.758 28.1406 138.465 27.9219 138.949 27.4844C139.441 27.0469 139.688 26.4219 139.688 25.6094C139.688 24.7734 139.441 24.0977 138.949 23.582C138.457 23.0664 137.777 22.8008 136.91 22.7852H133.688V28.1406ZM151.113 37.2344C149.254 37.2344 147.738 36.6641 146.566 35.5234C145.402 34.3828 144.82 32.8633 144.82 30.9648V30.6367C144.82 29.3633 145.066 28.2266 145.559 27.2266C146.051 26.2188 146.746 25.4453 147.645 24.9062C148.551 24.3594 149.582 24.0859 150.738 24.0859C152.473 24.0859 153.836 24.6328 154.828 25.7266C155.828 26.8203 156.328 28.3711 156.328 30.3789V31.7617H148.254C148.363 32.5898 148.691 33.2539 149.238 33.7539C149.793 34.2539 150.492 34.5039 151.336 34.5039C152.641 34.5039 153.66 34.0312 154.395 33.0859L156.059 34.9492C155.551 35.668 154.863 36.2305 153.996 36.6367C153.129 37.0352 152.168 37.2344 151.113 37.2344ZM150.727 26.8281C150.055 26.8281 149.508 27.0547 149.086 27.5078C148.672 27.9609 148.406 28.6094 148.289 29.4531H153V29.1836C152.984 28.4336 152.781 27.8555 152.391 27.4492C152 27.0352 151.445 26.8281 150.727 26.8281ZM157.734 30.5664C157.734 28.5898 158.176 27.0156 159.059 25.8438C159.949 24.6719 161.164 24.0859 162.703 24.0859C163.938 24.0859 164.957 24.5469 165.762 25.4688V19H169.16V37H166.102L165.938 35.6523C165.094 36.707 164.008 37.2344 162.68 37.2344C161.188 37.2344 159.988 36.6484 159.082 35.4766C158.184 34.2969 157.734 32.6602 157.734 30.5664ZM161.121 30.8125C161.121 32 161.328 32.9102 161.742 33.543C162.156 34.1758 162.758 34.4922 163.547 34.4922C164.594 34.4922 165.332 34.0508 165.762 33.168V28.1641C165.34 27.2812 164.609 26.8398 163.57 26.8398C161.938 26.8398 161.121 28.1641 161.121 30.8125ZM178.91 27.4961C178.449 27.4336 178.043 27.4023 177.691 27.4023C176.41 27.4023 175.57 27.8359 175.172 28.7031V37H171.785V24.3203H174.984L175.078 25.832C175.758 24.668 176.699 24.0859 177.902 24.0859C178.277 24.0859 178.629 24.1367 178.957 24.2383L178.91 27.4961ZM179.602 30.543C179.602 29.2852 179.844 28.1641 180.328 27.1797C180.812 26.1953 181.508 25.4336 182.414 24.8945C183.328 24.3555 184.387 24.0859 185.59 24.0859C187.301 24.0859 188.695 24.6094 189.773 25.6562C190.859 26.7031 191.465 28.125 191.59 29.9219L191.613 30.7891C191.613 32.7344 191.07 34.2969 189.984 35.4766C188.898 36.6484 187.441 37.2344 185.613 37.2344C183.785 37.2344 182.324 36.6484 181.23 35.4766C180.145 34.3047 179.602 32.7109 179.602 30.6953V30.543ZM182.988 30.7891C182.988 31.9922 183.215 32.9141 183.668 33.5547C184.121 34.1875 184.77 34.5039 185.613 34.5039C186.434 34.5039 187.074 34.1914 187.535 33.5664C187.996 32.9336 188.227 31.9258 188.227 30.543C188.227 29.3633 187.996 28.4492 187.535 27.8008C187.074 27.1523 186.426 26.8281 185.59 26.8281C184.762 26.8281 184.121 27.1523 183.668 27.8008C183.215 28.4414 182.988 29.4375 182.988 30.7891Z" fill="#263B61"/>
</svg>
