<svg width="40" height="39" fill="none" xmlns="http://www.w3.org/2000/svg"><path d="M35.361 0H5.502C2.982 0 .932 2.05.932 4.57v29.86c0 2.52 2.05 4.57 4.57 4.57h29.86c2.52 0 4.57-2.05 4.57-4.57V4.57c0-2.52-2.05-4.57-4.57-4.57zm1.524 34.43c0 .84-.684 1.523-1.524 1.523h-8.683V23.537h4.706l.778-4.723h-5.484V15.54c0-1.293.992-2.285 2.285-2.285h3.123V8.53h-3.123c-3.879 0-7.006 3.142-7.006 7.021v3.262h-4.572v4.723h4.572v12.416H5.502c-.84 0-1.523-.683-1.523-1.523V4.57c0-.84.683-1.523 1.523-1.523h29.86c.84 0 1.523.683 1.523 1.523v29.86z" fill="#F0F8FF"/></svg>