<svg width="49" height="38" fill="none" xmlns="http://www.w3.org/2000/svg"><path d="M20.809 10.713c-.994-.594-2.268.124-2.268 1.288v14c0 1.17 1.276 1.878 2.268 1.29l11.738-6.99a1.502 1.502 0 00.002-2.578l-11.74-7.01zm.732 12.65v-8.72l7.31 4.366-7.31 4.354z" fill="#F0F8FF"/><path d="M40.74 1.542C31.434.16 18.434.16 9.124 1.542 5.4 2.094 2.466 5.018 1.826 8.814c-1.192 7.046-1.192 13.328 0 20.372.64 3.798 3.574 6.72 7.298 7.272 4.664.692 10.248 1.038 15.83 1.038 5.572 0 11.142-.344 15.788-1.036 3.72-.552 6.652-3.474 7.296-7.272 1.192-7.046 1.192-13.33 0-20.376-.64-3.794-3.574-6.718-7.298-7.27zm4.34 27.146c-.426 2.512-2.346 4.444-4.78 4.804-9.036 1.342-21.676 1.342-30.736-.002-2.436-.362-4.358-2.292-4.782-4.804-1.148-6.788-1.148-12.582 0-19.374.426-2.512 2.346-4.44 4.784-4.804 4.524-.67 9.946-1.006 15.364-1.006 5.422 0 10.844.336 15.368 1.006 2.436.362 4.358 2.292 4.782 4.804 1.148 6.792 1.148 12.586 0 19.376z" fill="#F0F8FF"/></svg>