<svg width="40" height="39" fill="none" xmlns="http://www.w3.org/2000/svg"><path d="M1.038 11.466c.092-2.072.427-3.497.907-4.731A9.517 9.517 0 014.2 3.276a9.598 9.598 0 013.451-2.247c1.242-.48 2.66-.816 4.731-.907C14.47.022 15.132 0 20.428 0c5.295 0 5.958.023 8.037.114 2.073.092 3.497.427 4.732.907a9.516 9.516 0 013.459 2.255 9.603 9.603 0 012.247 3.451c.48 1.242.815 2.66.907 4.731.099 2.088.122 2.75.122 8.046 0 5.295-.023 5.958-.115 8.037-.091 2.073-.426 3.497-.906 4.732a9.619 9.619 0 01-2.255 3.459 9.598 9.598 0 01-3.452 2.247c-1.242.48-2.659.815-4.731.907-2.08.091-2.743.114-8.038.114s-5.957-.023-8.037-.114c-2.073-.092-3.497-.427-4.731-.907a9.975 9.975 0 01-5.707-5.706c-.48-1.242-.815-2.66-.907-4.732C.963 25.462.94 24.8.94 19.505c0-5.295.008-5.958.1-8.038zM4.55 27.39c.084 1.905.404 2.933.67 3.619a6.47 6.47 0 003.704 3.703c.685.267 1.721.586 3.619.67 2.057.092 2.674.114 7.877.114 5.204 0 5.828-.022 7.878-.114 1.905-.084 2.933-.404 3.619-.67a6.001 6.001 0 002.24-1.456 6.063 6.063 0 001.455-2.24c.267-.685.587-1.721.67-3.618.092-2.057.114-2.674.114-7.878 0-5.204-.022-5.828-.114-7.878-.083-1.904-.403-2.933-.67-3.618a5.928 5.928 0 00-1.463-2.24 6.054 6.054 0 00-2.24-1.456c-.686-.266-1.722-.586-3.619-.67-2.057-.091-2.674-.114-7.877-.114-5.212 0-5.829.023-7.878.114-1.905.084-2.933.404-3.62.67a5.997 5.997 0 00-2.239 1.455 6.062 6.062 0 00-1.455 2.24c-.267.686-.587 1.722-.67 3.62-.092 2.056-.115 2.673-.115 7.877s.023 5.813.114 7.87z" fill="#F0F8FF"/><path d="M20.429 9.485c5.53 0 10.018 4.488 10.018 10.019S25.96 29.522 20.43 29.522c-5.532 0-10.019-4.487-10.019-10.018 0-5.531 4.487-10.019 10.019-10.019zm0 16.518a6.5 6.5 0 000-12.998 6.5 6.5 0 000 12.998zM7.674 9.09a2.339 2.339 0 104.678-.001 2.339 2.339 0 00-4.678 0z" fill="#F0F8FF"/></svg>