<svg width="1217" height="512" fill="none" xmlns="http://www.w3.org/2000/svg"><g clip-path="url(#clip0)"><path d="M1189.38 494.817H46.528s-.99-9.447-1.28-24.692a446.689 446.689 0 01.532-31.846c.056-.992.11-1.993.169-3.003.334-5.551.784-11.348 1.39-17.322.055-.53.109-1.062.17-1.592a407.424 407.424 0 012.505-19.41 381.623 381.623 0 012.916-16.598c.077-.394.158-.794.242-1.188.579-2.87 1.2-5.758 1.863-8.662a337.468 337.468 0 012.474-10.164 325.053 325.053 0 014.767-16.641c.175-.564.358-1.138.536-1.711a340.59 340.59 0 012.506-7.463 293.23 293.23 0 014.236-11.372 284.95 284.95 0 012.93-7.111c31.54-73.795 98.306-142.449 237.726-141.067C609.763 177.947 586.773 15.344 796.456 4.936 881.855.698 933.924 77.424 918.562 187.042c-25.972 185.43 267.008 51.003 270.818 307.775z" fill="#DEF0FF"/><path d="M867.375 493.078s0-5.397.768-7.196c.771-1.795 3.593-9.102 3.593-9.102h11.024s2.05 6.665 2.183 8.849c.126 2.178 0 7.449 0 7.449h-17.568zm70.003 0s0-5.397-.769-7.196c-.771-1.795-3.592-9.102-3.592-9.102h-11.024s-2.051 6.665-2.177 8.849c-.128 2.178 0 7.449 0 7.449h17.562z" fill="#233862"/><path d="M893.21 189.99s-.39 12.024-1.929 17.41l-12.174 8.497 45.832 6.861-10.929-15.108s-3.302-16.122-1.569-22.086c1.726-5.963-19.231 4.426-19.231 4.426z" fill="#FFB27D"/><path d="M893.145 191.65c0-.003 3.619 8.727 10.451 8.535 6.826-.191 8.379-7.915 8.379-7.915l-18.83-.62z" fill="#ED985F"/><path d="M889.069 184.581s-2.206-11.009-3.748-14.343c-1.534-3.335-2.817-18.213 14.231-18.984 0 0 6.54.771 10.132-1.411 0 0 0 2.182-.897 2.951 0 0 5.898-1.412 10.51 3.72 4.613 5.131-3.078 23.087-2.693 27.319l-27.535.748z" fill="#2C3A64"/><path d="M902.813 196.813c-4.949-.086-14.053-6.676-14.053-14.838v-12.731c0-2.981 2.075-5.418 4.615-5.418h18.873c2.535 0 4.615 2.437 4.615 5.418v12.012c0 8.556-8.381 15.658-14.05 15.557z" fill="#FFB27D"/><path d="M888.759 176.041s.029-7.652 6.084-8.826c6.055-1.175 19.617 3.729 21.537-1.851 1.924-5.581-26.201-5.484-27.621-1.924-1.413 3.558 0 12.601 0 12.601z" fill="#2C3A64"/><path d="M868.76 306.07s1.931 58.928-.958 92.555c-2.882 33.627.025 80.419.025 80.419s9.226 5.086 19.224 0c0 0 10.964-64.961 10.896-80.419-.074-16.463 4.358-41.558 4.358-41.558l-7.38-48.427-26.165-2.57zm68.22 172.974s-9.219 5.091-19.22 0c0 0-10.968-64.961-10.896-80.419.027-6.955-2.093-24.09-4.559-41.558l-7.38-48.427 42.717-2.671s-3.52 59.036-.637 92.656c2.882 33.627-.025 80.419-.025 80.419z" fill="#B64C41"/><path d="M937.131 315.873s-18.211 3.528-34.826 3.528c-7.245 0-15.116-.796-21.385-1.637-6.934-.919-11.901-1.891-11.901-1.891s-3.691.324-1.512-17.888c1.658-13.859 1.14-26.372.77-39.248-.042-1.432-.013-3.125.075-5.01.71-15.008 5.248-42.032 8.705-43.484 0 0 5.14-1.912 14.224-2.843 0 .178 5.273 7.889 11.531 8.755 3.888-1.54 6.943-2.852 11.198-8.505a122.02 122.02 0 0117.548 3.387s.654 2.863 3.121 52.529c.983 19.674 7.696 52.372 2.452 52.307z" fill="#739AF0"/><path d="M906.863 398.625c.028-6.955-2.093-24.09-4.558-41.559 2.557-10.432 8.788-20.476 8.788-20.476 7.883 22.125-4.23 62.035-4.23 62.035z" fill="#AA413E"/><path d="M851.445 269.365c-.432.361 1.08 4.117 3.311 9.012 4.595 10.053 12.22 24.901 12.22 24.901-1.104 4.192-2.314 6.78-2.314 6.78-12.831-10.085-21.104-18.666-26.386-25.245-7.421-9.255-8.942-14.56-8.942-14.56 28.568-58.177 48.669-60.321 48.669-60.321l-2.375 38.447s-22.858 19.886-24.183 20.986zm90.794 61.717c-4.259 8.525-20.32 8.213-20.32 8.213-2.948-22.647-3.601-131.061-3.601-131.061 5.431.652 12.653 2.6 12.653 2.6 5.215 10.089 7.06 28.985 7.516 42.3.248 7.456.065 13.16-.212 14.592-.404 2.126.108 12.258.892 23.817 1.217 18.035 3.072 39.539 3.072 39.539zM887.06 207.937s-1.08 108.707-4.023 131.358c0 0-16.056.312-20.315-8.213 0 0 6.591-66.9 5.555-72.345-.724-3.792 1.153-34.976 8.099-48.375 0 0 6.073-1.882 10.684-2.425z" fill="#2B478B"/><path d="M865.455 304.011s6.925-6.412 9.742-2.82c2.821 3.592 3.333 9.232 1.154 8.847-2.18-.386-6.666-2.435-7.311-1.409-.637 1.026-3.511 2.987-4.378 1.429-.875-1.555.793-6.047.793-6.047zm1.521-.732c-1.104 4.191-2.314 6.779-2.314 6.779-12.832-10.085-21.104-18.665-26.387-25.244 3.982-.296 9.794-1.721 16.48-6.437 4.595 10.053 12.221 24.902 12.221 24.902z" fill="#FFB27D"/><path d="M977.313 270.253s-1.526 5.305-8.949 14.56c-5.275 6.579-13.548 15.16-26.379 25.245 0 0-1.21-2.588-2.315-6.779 0 0 7.624-14.849 12.217-24.902 2.228-4.895 3.745-8.651 3.31-9.012-1.025-.854-14.99-12.993-21.221-18.406-1.808-1.576-2.964-2.58-2.964-2.58l-1.426-37.877s19.159 1.574 47.727 59.751z" fill="#2B478B"/><path d="M941.187 304.011s-6.92-6.412-9.742-2.82c-2.821 3.592-3.333 9.232-1.154 8.847 2.18-.386 6.666-2.435 7.309-1.409.642 1.026 3.513 2.987 4.385 1.429.872-1.558-.798-6.047-.798-6.047zm-1.521-.732c1.104 4.191 2.314 6.779 2.314 6.779 12.832-10.085 21.104-18.665 26.384-25.244-3.979-.296-9.791-1.721-16.477-6.437-4.593 10.053-12.221 24.902-12.221 24.902z" fill="#FFB27D"/><path d="M955.196 269.365c-1.026-.854-14.99-12.993-21.221-18.406 0 0 6.219-4.665 10.066 2.133 3.847 6.797 11.155 16.273 11.155 16.273zm22.116.889s-1.526 5.305-8.949 14.56c-8.59-.12 8.949-14.56 8.949-14.56z" fill="#233862"/><path fill-rule="evenodd" clip-rule="evenodd" d="M896.403 181.405c-1.808 0-5.422-.399-6.056-3.542a2.85 2.85 0 01.521-2.446c.581-.713 1.548-1.123 2.643-1.123h5.553c1.057 0 1.798.302 2.197.902.186.29.296.622.32.965a5.177 5.177 0 012.465-.047 2.01 2.01 0 01.314-.918c.399-.6 1.135-.902 2.192-.902h5.56c1.093 0 2.059.41 2.643 1.123.53.649.708 1.495.516 2.446-.629 3.141-4.243 3.542-6.051 3.542a9.543 9.543 0 01-1.014-.045c-1.694-.005-2.884-.97-3.747-3.037a5.397 5.397 0 01-.426-1.759 4.791 4.791 0 00-2.445.05 5.457 5.457 0 01-.424 1.709c-.865 2.067-2.057 3.032-3.747 3.037a9.543 9.543 0 01-1.014.045zm-2.892-6.746c-.987 0-1.845.361-2.361.99-.46.561-.611 1.301-.442 2.142.325 1.612 1.535 2.642 3.597 3.062 1.014.19 2.05.239 3.078.144l.025-.002c1.53 0 2.614-.893 3.418-2.812.197-.464.326-.953.386-1.454a3.28 3.28 0 00-.302.115.22.22 0 01-.227-.031.217.217 0 01.049-.368c.159-.069.322-.13.489-.183a1.726 1.726 0 00-.264-.863c-.329-.492-.962-.74-1.893-.74h-5.553zm13.041 0c-.924 0-1.557.248-1.886.74-.157.247-.247.53-.261.823.181.063.358.139.527.23a.214.214 0 01.101.129.215.215 0 01-.017.163.215.215 0 01-.126.105.215.215 0 01-.163-.012 2.969 2.969 0 00-.32-.146c.056.513.185 1.016.385 1.492.803 1.919 1.893 2.812 3.423 2.812l.018.002c1.03.095 2.069.046 3.085-.144 2.06-.42 3.272-1.45 3.597-3.062.169-.841.018-1.581-.442-2.142-.516-.629-1.377-.99-2.361-.99h-5.56z" fill="#B64C41"/><path d="M939.168 291.544c-9.097-25.664-5.192-40.585-5.192-40.585l4.511 2.176c.248 7.456.066 13.16-.211 14.591-.404 2.126.108 12.258.892 23.818z" fill="#233862"/><path d="M509.261 181.975s-10.732-19.473-.888-28.072c9.843-8.599 27.17-3.467 30.357 0 3.186 3.468 7.436 13.33-1.366 27.353l-28.103.719z" fill="#2C3A64"/><path d="M487.877 493.078s0-5.397.768-7.196c.771-1.795 3.592-9.102 3.592-9.102h11.025s2.05 6.665 2.177 8.849c.128 2.178 0 7.449 0 7.449h-17.562zm70.003 0s0-5.397-.769-7.196c-.771-1.795-3.592-9.102-3.592-9.102h-11.024s-2.051 6.665-2.179 8.849c-.131 2.178 0 7.449 0 7.449h17.564z" fill="#233862"/><path d="M513.707 189.99s-.385 12.024-1.924 17.41l-12.174 8.497 45.83 6.861-10.93-15.108s-3.299-16.122-1.573-22.086c1.733-5.963-19.229 4.426-19.229 4.426z" fill="#B56F40"/><path d="M513.643 191.65c0-.003 3.623 8.727 10.449 8.535 6.826-.191 8.381-7.915 8.381-7.915l-18.83-.62z" fill="#99592E"/><path d="M532.75 163.826h-18.873c-2.54 0-4.615 2.437-4.615 5.415v12.734c0 8.162 9.104 14.752 14.052 14.838 5.67.101 14.051-7.001 14.051-15.557v-12.015c0-2.978-2.08-5.415-4.615-5.415z" fill="#B56F40"/><path d="M489.262 306.07s1.924 58.928-.958 92.555c-2.882 33.627.025 80.419.025 80.419s9.219 5.086 19.22 0c0 0 10.965-64.961 10.895-80.419-.069-16.463 4.363-41.558 4.363-41.558l-7.38-48.427-26.165-2.57zm68.22 172.974s-9.226 5.091-19.225 0c0 0-10.963-64.961-10.891-80.419.027-6.955-2.096-24.09-4.559-41.558l-7.38-48.427 42.717-2.671s-3.526 59.036-.637 92.656c2.882 33.627-.025 80.419-.025 80.419z" fill="#EE9849"/><path d="M550.088 210.502v.025a121.478 121.478 0 00-15.579-2.877c-4.252 5.653-7.308 6.965-11.195 8.505-6.258-.866-11.531-8.577-11.531-8.755-6.817.699-11.414 1.95-13.283 2.532-.369.045-20.364 2.688-48.666 60.321 0 0 1.521 5.306 8.944 14.561 5.282 6.578 13.555 15.159 26.384 25.244 0 0 1.212-2.588 2.317-6.779 0 0-7.631-14.849-12.221-24.902-2.231-4.895-3.748-8.651-3.31-9.012.827-.687 10.05-8.7 16.862-14.623-.051 1.481-.069 2.827-.031 3.995.365 12.876.886 25.389-.771 39.248-2.183 18.212 1.512 17.888 1.512 17.888s4.967.972 11.897 1.891c6.271.841 14.14 1.637 21.39 1.637 16.615 0 34.825-3.528 34.825-3.528 5.24.065-1.469-32.633-2.452-52.307-.229-4.57-.441-8.738-.637-12.549 6.262 5.441 20.13 17.496 21.153 18.348.437.361-1.079 4.117-3.308 9.012-4.592 10.053-12.221 24.902-12.221 24.902 1.102 4.191 2.319 6.779 2.319 6.779 12.827-10.085 21.098-18.666 26.38-25.244 7.423-9.255 8.948-14.561 8.948-14.561-28.567-58.177-47.726-59.751-47.726-59.751z" fill="#74ACBE"/><path d="M501.417 317.764c-6.93-.92-11.896-1.891-11.896-1.891s-3.696.324-1.512-17.888c1.656-13.859 1.135-26.372.77-39.248-.043-1.432-.016-3.125.075-5.01 1.061 1.703 12.892 20.817 16.074 35.023 2.319 10.362-1.174 22.566-3.511 29.014z" fill="#578E9B"/><path d="M527.365 398.625c.027-6.955-2.095-24.09-4.558-41.559 2.557-10.432 8.788-20.476 8.788-20.476 7.883 22.125-4.23 62.035-4.23 62.035z" fill="#E58638"/><path d="M485.959 304.011s6.918-6.412 9.742-2.82c2.823 3.592 3.333 9.232 1.153 8.847-2.183-.383-6.665-2.435-7.31-1.409-.638 1.026-3.511 2.987-4.385 1.429-.868-1.555.8-6.047.8-6.047zm1.521-.732c-1.104 4.191-2.317 6.779-2.317 6.779-12.829-10.085-21.102-18.665-26.384-25.244 3.982-.296 9.794-1.721 16.48-6.437 4.59 10.053 12.221 24.902 12.221 24.902zm74.21.732s-6.921-6.412-9.742-2.82c-2.821 3.592-3.333 9.232-1.156 8.847 2.177-.386 6.668-2.435 7.31-1.409.638 1.026 3.511 2.987 4.386 1.429.867-1.555-.798-6.047-.798-6.047zm-1.521-.732c1.102 4.191 2.314 6.779 2.314 6.779 12.831-10.085 21.102-18.665 26.384-25.244-3.98-.296-9.794-1.721-16.478-6.437-4.597 10.053-12.22 24.902-12.22 24.902z" fill="#B56F40"/><path d="M575.696 269.365c-1.028-.854-14.991-12.993-21.219-18.406 0 0 6.219-4.665 10.064 2.133 3.844 6.797 11.155 16.273 11.155 16.273zm22.118.889s-1.526 5.305-8.949 14.56c-8.59-.12 8.949-14.56 8.949-14.56z" fill="#578E9B"/><path d="M509.261 174.406s3.432-10.486 14.682-8.851c11.249 1.635 12.225 4.04 13.422 6.831 1.192 2.789 3.502-10.197 3.502-10.197l-13.271-3.943s-16.056 1.826-17.208 4.52l-1.154 2.694.027 8.946zm13.132-20.286s-11.892-10.809-6.788-13.117c5.097-2.309 6.788 13.117 6.788 13.117zm-.478.286s-15.033-5.668-11.141-9.695c3.887-4.026 11.141 9.695 11.141 9.695zm.98.313s-2.458-13.942 3.484-13.84c5.938.101-3.484 13.84-3.484 13.84zm.836-.91s6.436-14.998 12.433-13.593c5.996 1.404-12.433 13.593-12.433 13.593zm-.329.91s10.244-12.7 15.639-9.728c5.388 2.972-15.639 9.728-15.639 9.728z" fill="#2C3A64"/><path d="M1168.37 492.506h-39.42c-2.12-1.79 1.46-5.862 5.19-6.134 1.62-.127 3.67.216 6.02.708.54-7.208 3.64-39.618 15.32-38.313 13.13 1.457 0 14.27-3.71 21.859-2.75 5.618-5.66 13.674-6.98 17.479 1.07.23 2.17.46 3.29.666 1.75-5.344 8.22-23.324 16.46-22.278 9.66 1.226 5.78 8.437-1.08 12.716-5.02 3.147-11.19 7.618-14.13 9.778 2.55.443 5.13.65 7.71.62 6.75-.165 10.05 1.828 11.33 2.899zM92.364 490.344c-2.413-3.79-9.672-13.631-19.342-12.328-10.535 1.418 11.635 8.369 18.425 12.358-1.508.018-2.806-.1-3.757-.442-4.538-1.617-12.308 1.488-14.794 2.574h43.2a6.827 6.827 0 00-3.087-3.95c-.71-.437-2.137-.493-3.978-.358 2.569-3.03 4.354-12.705-2.797-10.216-5.225 1.817-5.21 7.731-4.698 11.23-1.111.174-2.238.354-3.351.512-2.15-10.966-9.758-43.11-25.178-43.964-15.63-.868 13.257 33.332 22.875 44.271-1.233.149-2.42.261-3.518.313z" fill="#82B378"/><path d="M412.9 493.078s0-5.397.764-7.196c.771-1.795 3.592-9.102 3.592-9.102h11.025s2.05 6.665 2.176 8.849c.133 2.178 0 7.449 0 7.449H412.9zm69.999 0s0-5.397-.769-7.196c-.771-1.795-3.592-9.102-3.592-9.102h-11.024s-2.051 6.665-2.177 8.849c-.133 2.178 0 7.449 0 7.449h17.562z" fill="#233862"/><path d="M438.731 189.99s-.39 12.024-1.929 17.41l-12.173 8.497 45.829 6.861-10.929-15.108s-3.299-16.122-1.566-22.086c1.726-5.963-19.232 4.426-19.232 4.426z" fill="#FFB27D"/><path d="M438.666 191.65c0-.003 3.619 8.727 10.452 8.535 6.826-.191 8.374-7.915 8.374-7.915l-18.826-.62z" fill="#ED985F"/><path d="M434.592 184.581s-2.206-11.009-3.747-14.343c-1.535-3.335-2.817-18.213 14.231-18.984 0 0 6.539.771 10.131-1.411 0 0 0 2.182-.901 2.951 0 0 5.9-1.412 10.515 3.72 4.615 5.131-3.079 23.087-2.693 27.319l-27.536.748z" fill="#B64C41"/><path d="M457.769 163.826h-18.873c-2.539 0-4.615 2.437-4.615 5.415v12.734c0 8.162 9.104 14.752 14.053 14.838 5.67.101 14.051-7.001 14.051-15.557v-12.015c0-2.978-2.08-5.415-4.616-5.415z" fill="#FFB27D"/><path d="M434.28 176.041s.03-7.652 6.085-8.826c6.055-1.175 19.614 3.729 21.537-1.851 1.922-5.581-26.204-5.484-27.622-1.924-1.417 3.56 0 12.601 0 12.601z" fill="#B64C41"/><path d="M414.281 306.07s1.931 58.928-.958 92.555c-2.882 33.627.025 80.419.025 80.419s9.224 5.086 19.225 0c0 0 10.963-64.961 10.895-80.419-.074-16.463 4.359-41.558 4.359-41.558l-7.381-48.427-26.165-2.57zm68.22 172.974s-9.219 5.091-19.22 0c0 0-10.968-64.961-10.896-80.419.028-6.955-2.095-24.09-4.558-41.558l-7.381-48.427 42.718-2.671s-3.522 59.036-.638 92.656c2.882 33.627-.025 80.419-.025 80.419z" fill="#2B478B"/><path d="M426.441 317.764c-6.934-.92-11.901-1.891-11.901-1.891s-3.691.324-1.512-17.888c1.657-13.859 1.14-26.372.771-39.248-.043-1.432-.016-3.125.074-5.01 1.062 1.703 12.893 20.817 16.079 35.023 2.317 10.362-1.176 22.566-3.511 29.014z" fill="#27437C"/><path d="M475.107 210.502l.005.025a121.538 121.538 0 00-15.583-2.877c-4.253 5.653-7.308 6.965-11.196 8.505-6.258-.866-11.531-8.577-11.531-8.755-6.817.699-11.414 1.95-13.282 2.532-.369.045-20.367 2.688-48.666 60.321 0 0 1.523 5.306 8.946 14.561 5.28 6.578 13.552 15.159 26.384 25.244 0 0 1.21-2.588 2.314-6.779 0 0-7.628-14.849-12.218-24.902-2.231-4.895-3.748-8.651-3.313-9.012.827-.687 10.053-8.7 16.863-14.623a64.289 64.289 0 00-.032 3.995c.37 12.876.886 25.389-.77 39.248-2.179 18.212 1.512 17.888 1.512 17.888s4.967.972 11.901 1.891c6.267.841 14.14 1.637 21.385 1.637 16.615 0 34.826-3.528 34.826-3.528 5.239.065-1.469-32.633-2.452-52.307-.225-4.57-.435-8.738-.633-12.549 6.262 5.441 20.126 17.496 21.151 18.348.435.361-1.081 4.117-3.31 9.012-4.593 10.053-12.216 24.902-12.216 24.902 1.104 4.191 2.314 6.779 2.314 6.779 12.831-10.085 21.104-18.666 26.379-25.244 7.423-9.255 8.949-14.561 8.949-14.561-28.568-58.177-47.727-59.751-47.727-59.751z" fill="#2F5196"/><path d="M452.385 398.625c.027-6.955-2.096-24.09-4.559-41.559 2.558-10.432 8.789-20.476 8.789-20.476 7.883 22.125-4.23 62.035-4.23 62.035z" fill="#233862"/><path d="M410.976 304.011s6.918-6.412 9.742-2.82c2.824 3.592 3.333 9.232 1.154 8.847-2.179-.386-6.666-2.435-7.311-1.409-.637 1.026-3.511 2.987-4.378 1.429-.875-1.555.793-6.047.793-6.047zm1.521-.732c-1.104 4.191-2.314 6.779-2.314 6.779-12.832-10.085-21.104-18.665-26.384-25.244 3.98-.296 9.791-1.721 16.48-6.437 4.59 10.053 12.218 24.902 12.218 24.902zm74.21.732s-6.92-6.412-9.742-2.82c-2.821 3.592-3.333 9.232-1.156 8.847 2.184-.383 6.668-2.435 7.311-1.409.642 1.026 3.513 2.987 4.385 1.429.867-1.555-.798-6.047-.798-6.047zm-1.521-.732c1.102 4.191 2.314 6.779 2.314 6.779 12.832-10.085 21.104-18.665 26.384-25.244-3.979-.296-9.793-1.721-16.477-6.437-4.593 10.053-12.221 24.902-12.221 24.902z" fill="#FFB27D"/><path d="M500.717 269.365c-1.025-.854-14.992-12.993-21.221-18.406 0 0 6.22-4.665 10.066 2.133 3.847 6.797 11.155 16.273 11.155 16.273zm22.116.889s-1.525 5.305-8.949 14.56c-8.59-.12 8.949-14.56 8.949-14.56z" fill="#2B478B"/><path d="M437.44 204.469a4.855 4.855 0 00-2.61 3.157s8.164 8.4 13.503 8.529l-10.893-11.686zm10.893 11.686l10.535-12.112s2.177 1.434 2.145 3.79c0 0-8.15 8.642-12.68 8.322zm-1.897-.893s-8.043 69.455-5.244 77.921a57.883 57.883 0 004.906 10.759 2.848 2.848 0 003.894 1.032c.432-.25.791-.61 1.041-1.044 2.129-3.709 4.924-9.077 4.924-11.8 0-4.412-6.103-76.927-6.103-76.927l-3.418.059z" fill="#EE9849"/><path d="M444.329 211.857s4.863-.487 7.819-.187a.828.828 0 01.642.441.82.82 0 01-.015.779c-.827 1.493-2.522 4.081-4.293 4.081-2.484 0-6.355-4.94-4.153-5.114z" fill="#E58638"/><path d="M750.841 180.895s-4.516-12.837-4.755-16.172c-.244-3.337 1.257-12.955 12.365-13.981 11.107-1.025 15.245-2.211 15.245-2.211l-2.119 2.5a7.942 7.942 0 016.306 1.154c3.215 2.115 4.849 8.369 4.367 13.756-.482 5.386-4.685 11.318-4.742 13.545-.06 2.228-26.667 1.409-26.667 1.409z" fill="#233862"/><path d="M720.552 314.087s-.259 2.935-3.315 9.316c0 0-1.404 4.333 7.775 10.84 9.178 6.5.252-20.156.252-20.156h-4.712zm32.39-113.293s-5.152 27.574-10.768 56.376c-6.102 31.307-12.754 64.071-13.951 64.465-2.292.767-5.803-2.229-7.333-6.058-1.23-3.077-3.34-28.369-1.902-44.715.347-3.988.755-7.264 1.206-9.291 2.292-10.33 2.99-46.875 9.875-52.613 6.884-5.738 22.873-8.164 22.873-8.164z" fill="#D9935C"/><path d="M752.94 200.794s-2.973 15.893-6.855 36.148a6385.2 6385.2 0 01-3.912 20.228c-5.501 10.79-10.225 18.127-11.68 16.745-2.977-2.809-8.201-3.157-11.507-3.053.347-3.988.755-7.264 1.206-9.291a43.93 43.93 0 00.518-2.911c1.925-12.997 3.013-44.417 9.357-49.702 6.882-5.74 22.873-8.164 22.873-8.164z" fill="#739AF0"/><path d="M746.085 236.942a6385.2 6385.2 0 01-3.912 20.228c-5.501 10.791-10.225 18.127-11.68 16.745-2.977-2.809-8.201-3.156-11.507-3.052.347-3.989.755-7.265 1.206-9.292.178-.816.354-1.797.518-2.91l16.496-39.839 8.879 18.12z" fill="#4A75CB"/><path d="M775.771 200.389c.121-5.56.027-12.2-.724-17.812l-22.188 3.628s0 6.773.1 14.29c-.007 0-.013.002-.019.004 0 0-.606 6.971 7.976 7.993 8.581 1.021 15.084-2.724 14.855-8.103z" fill="#D9935C"/><path d="M752.799 187.576s5.226 10.711 11.22 10.711c5.994 0 11.601-10.073 11.601-10.073l-22.821-.638z" fill="#CB7D45"/><path d="M767.588 494.637s.807-6.293 2.675-10.033c1.868-3.741 13.769-1.362 13.769-1.362s2.377 2.045 2.889 11.564l-19.333-.169zm-40.536-.084c2.794-1.709 1.201-14.443 1.201-14.443s-13.023-10.427-14.816-2.444c-1.788 7.982-12.374 11.566-18.398 12.543-4.16.676-5.447 2.982-5.846 4.344h37.859z" fill="#233862"/><path d="M753.522 188.369c2.154 1.695 8.473 3.382 10.301 3.578 0 0 9.374-2.09 11.078-3.118 2.639-1.601 2.469-4.841 2.607-9.343.158-5.33.694-9.517.101-12.59-.707-3.675-3.035-5.767-9.557-6.335-11.977-1.039-16.962 1.959-17.169 5.977a164.478 164.478 0 00-.14 3.08c-.48 12.524.512 16.965 2.779 18.751z" fill="#D9935C"/><path d="M754.034 399.912c-.53 2.927-.868 5.321-.958 7.041-1.206 23.631-19.883 77.666-23.22 78.929-5.17 1.95-13.305-2.198-17.564-3.556-1.764-.563-2.956-2.344-2.562-4.148 9.248-42.531 12.647-103.776 13.881-140.032.625-18.263 3.757-30.879 3.757-30.879s45.543-12.157 45.811 3.222c.239 13.608-15.085 66.977-19.145 89.423z" fill="#2B478B"/><path d="M754.033 399.912l-30.422-61.766c.625-18.263 3.757-30.879 3.757-30.879s45.543-12.157 45.811 3.222c.239 13.608-15.085 66.976-19.146 89.423z" fill="#233862"/><path d="M743.902 310.541l24.075 174.577s10.573 2.549 18.794.507c0 0 7.051-92.848 6.465-115.291-.593-22.446 5.057-60.066-1.291-64.21-6.348-4.151-48.043 4.417-48.043 4.417z" fill="#2B478B"/><path d="M795.403 306.122a3.61 3.61 0 01-.982 2.617 3.581 3.581 0 01-2.559 1.121l-37.937.577-27.869.428c-1.305.023 2.821-10.42 2.907-78.525.018-15.198 23.535-31.55 23.97-31.55l.007.004c0 2.19 3.445 6.23 8.755 6.577 6.3.413 14.032-2.724 14.032-6.356 0-.04.733.751 1.911 2.464 3.146 4.589 9.483 15.771 13.53 35.237 3.198 15.374 1.967 35.927 4.268 62.448.165 1.914-.079 3.616-.033 4.958z" fill="#FFA412"/><path d="M794.003 310.072s-5.041 2.259-14.472 4.218c-7.015 1.456-16.457 2.748-28.047 2.818-18.443.118-25.428-6.243-25.428-6.243-1.305.023 2.821-10.42 2.907-78.525.018-15.198 23.535-31.55 23.97-31.55l.007.004s-.606 20.237 5.51 26.19c0 0 8.583-6.633 19.718-25.509 3.146 4.586 8.953 17.775 13 37.241.823 3.962 1.352 8.263 1.724 12.926 1.075 13.43.836 29.833 2.544 49.522.165 1.914-.078 3.616-.033 4.958.081 2.024.624 3.92-1.4 3.95z" fill="#739AF0"/><path d="M794.003 310.072s-5.041 2.259-14.472 4.218c-2.972-4.529-6.708-12.702-7.227-25.58-.876-21.777 19.8-49.825 19.8-49.825l.788 12.757c1.075 13.43.836 29.833 2.545 49.522.164 1.914-.079 3.616-.034 4.958.081 2.024.624 3.92-1.4 3.95z" fill="#4A75CB"/><path d="M776.096 236.329l-35.244 20.361 27.909 48.37 35.25-20.359-27.915-48.372z" fill="#2B478B"/><path d="M809.526 281.567s-7.215.706-19.558-.564c-8.901-.915-20.47-2.859-33.915-6.831l4.07-6.717s15.93-.71 27.704-2.432a70.192 70.192 0 007.676-1.481c2.564-.686-10.145-32.899-16.554-51.842-1.53-4.521-2.7-8.286-3.221-10.685 0 0 1.123.18 2.883.528 4.987.985 15.127 3.3 19.441 6.565 5.841 4.415 20.414 54.214 11.474 73.459zm-49.403-14.112s-5.442-5.102-7.549-5.102c-2.103 0-8.165 2.21-8.784 3.91-.62 1.7-.868 4.761.863 5.442 1.73.681 9.541 2.298 11.4 2.467l4.07-6.717z" fill="#D9935C"/><path d="M809.525 281.567s-7.215.706-19.558-.564c.681-3.352 1.314-9.904-2.141-15.98a70.192 70.192 0 007.676-1.481c2.564-.686-10.145-32.899-16.554-51.842a627.696 627.696 0 01-.78-10.225l.442.068c4.987.985 15.127 3.3 19.441 6.565 5.841 4.415 20.414 54.214 11.474 73.459z" fill="#739AF0"/><path d="M758.45 226.983s17.17-7.568 17.424-8.161c.253-.598-.849-5.188-2.044-6.548 0 0 8.246.765 8.758-.254.507-1.022.68-9.524.68-9.524s-3.229-3.402-7.479-3.742c0 0-3.723 9.23-5.098 11.99-3.657 7.311-12.241 16.239-12.241 16.239zm-4.078-14.963s1.108 8.84 4.078 14.963c0 0-8.966-6.249-9.73-8.29-.764-2.04 2.168-5.995 2.168-5.995s-5.352-.126-5.483-1.912c-.126-1.785 1.656-8.799 1.656-8.799s4.606-3.364 5.884-3.238l1.427 13.271z" fill="#4A75CB"/><path d="M750.636 173.633s.464-7.981 5.417-8.078c4.949-.095 13.564-.58 17.141-3.944 3.576-3.363-21.267-1.828-21.267-1.828s-3.006 9.616-1.291 13.85zm19.887-10.836s6.454 2.632 7.36 6.735c0 0 2.127-15.135-7.36-6.735z" fill="#233862"/><path d="M354.152 453.997l5.348 22.537 8.011-.047.293-22.49h-13.652zm67.378.965l15.215 21.572 5.929-7.618-9.154-16.923-11.99 2.969z" fill="#FFB27D"/><path d="M366.836 172.652c-3.02-.994-6.303-.507-8.548.084.465-.722 1.569-1.173 1.569-1.173-1.449.075-4.313 2.106-4.313 2.106-21.122-3.603-18.384 25.892-16.622 32.516 1.762 6.624-4.793 10.224-13.927 17.565-17.424 14.008-16.41 27.856-16.41 27.856.169.058.347.128.539.209.635-1.83 2.003-5.302 3.585-6.105-.034.162-1.127 4.631-1.372 7.113 6.621 3.211 19.308 10.725 28.173 16.078-.302-1.335-.633-3.249-.347-4.354l2.048 5.384c4.746 2.875 8.03 4.908 8.03 4.908-1.587-5.318 17.647-38.966 28.964-50.162 2.233-5.316 1.697-13.805 1.649-14.472.773 6.66.392 10.56-.191 12.831 8.994-12.396-4.818-47.748-12.827-50.384z" fill="#163560"/><path d="M375.195 226.911c.065.03-6.425 3.403-11.306 2.066-4.592-1.252-7.592-7.211-7.529-7.222 1.945-.388 2.504-3.062 2.463-14.551l.879.174 14.783 2.928s-.336 4.654-.345 9.039c-.011 3.682.212 7.174 1.055 7.566z" fill="#FFB27D"/><path d="M351.482 180.67s5.614-9.057 16.045-3.641c0 0-5.406.149-16.045 3.641z" fill="#5FABB7"/><path d="M374.484 210.306s-.336 4.654-.345 9.039c-8.272-.232-12.646-7.783-14.438-11.967l14.783 2.928z" fill="#EF9E67"/><path d="M356.662 207.896s-5.605-5.859-7.781-11.399c-1.555-3.954-2.529-19.576 13.18-20.465a21.153 21.153 0 019.258 1.518c3.765 1.573 9.523 5.442 6.848 19.786l-.487 4.761-21.018 5.799z" fill="#163560"/><path d="M441.253 463.99s-3.93.676-7.154.92c-.719.056-1.4.09-1.99.09-1.555 0-4.354-.588-6.236-1.026l-.139-.031c-.823-.199-1.452-.352-1.686-.413l-.099-.029s-19.594-21.822-30.582-56.802a91.156 91.156 0 00-.814-2.471c-6.014-17.548-18.483-39.568-25.052-59.501a324.282 324.282 0 01-3.61-11.663c-4.843-16.835-6.242-27.885-7.534-39.692l39.504 10.056s16.586 71.932 45.392 160.562z" fill="#A53D38"/><path d="M377.071 212.644s-19.121 4.187-21.543-7.767c-2.423-11.953-6.522-19.464 5.584-22.642 12.106-3.179 15.412.901 17.19 4.694 1.778 3.792 3.682 24.32-1.231 25.715z" fill="#FFB27D"/><path d="M369.792 180.181s-2.427 15.085-10.071 18.785c-7.644 3.7-11.576 2.243-11.576 2.243s5.194-6.162 4.748-14.997c0 0 11.592-11.909 16.899-6.031zm-1.073 1.4s4.554 2.34 6.123 5.192c1.568 2.852 3.263 9.034 5.048 8.453 0 0 2.034-10.333-3.5-14.829-5.868-4.768-7.671 1.184-7.671 1.184z" fill="#163560"/><path d="M359.231 475.276a21.706 21.706 0 01-1.02 9.235s-1.312 5.979 4.572 6.088c5.884.112 7.326-.442 6.659-4.106-.665-3.668-1.931-10.006-1.931-10.006l-8.28-1.211z" fill="#FFB27D"/><path d="M358.211 484.511s-1.088 5.646-.424 8.642c0 0 1.776 1.335 6.051 1.335 4.052 0 6.161-1.335 6.161-1.335s.124-6.18-.958-8.793c0 0-4.169 6.261-10.83.151z" fill="#C45446"/><path d="M456.853 487.09s-10.846-12.044-14.179-18.174l-8.061 4.133 18.028 16.939 4.217-.555-.005-2.343z" fill="#FFB27D"/><path d="M463.745 494.149s-11.657 0-13.656-.221c-1.999-.22-3.606-3.109-5.771-7.44-.886-1.776-2.874-2.748-4.911-3.287v10.033h-3.078l-2.916-10.664c-1.92-3.531-.151-6.73 1.201-9.521 1.569-.005 5.798 1.073 13.812 10.105 2.634 2.967 5.541 4.024 8.428 3.936.039.025.08.047.122.066 6.656 2.996 6.769 6.993 6.769 6.993z" fill="#C45446"/><path d="M434.098 464.91c-.719.056-1.399.09-1.99.09-1.554 0-4.353-.588-6.235-1.026l-.14-.031-1.685-.413-.099-.029s-19.595-21.822-30.583-56.802a87.737 87.737 0 00-.813-2.471c-6.015-17.548-18.483-39.568-25.052-59.501a319.887 319.887 0 01-3.61-11.663l6.985-5.307s20.978 33.983 27.471 65.965c5.383 26.509 28.558 60.873 35.751 71.188z" fill="#912F2F"/><path d="M371.608 396.704c.117 15.548-.669 51.306-2.693 66.112 0 0-1.92 1.695-6.681 1.718-4.875.02-7.056-1.779-7.056-1.779-5.079-25.741-8.692-47.033-11.322-65.388-2.158-15.058-4.076-27.966-5.55-39.085-1.307-9.844-2.267-18.285-2.727-25.56-.061-.992-.114-1.959-.16-2.9-.058-1.249-.1-2.46-.126-3.634-.02-1.184-.026-2.334-.018-3.452l.171-.016 9.814-.958 31.008-3.023c-.518 27.251-4.727 68.925-4.66 77.965z" fill="#A53D38"/><path d="M362.233 464.533a12.115 12.115 0 01-7.056-1.779c-5.079-25.741-8.692-47.033-11.321-65.387-2.159-15.059-4.077-27.966-5.551-39.086-1.307-9.843-2.267-18.285-2.726-25.56-.055-3.589-.095-7.023-.133-10.001-.045-3.019-.095-5.576-.178-7.355l9.992 6.396 10.51 6.728s-14.911 13.575-11.247 39.225c3.659 25.655 12.613 93.184 17.71 96.819z" fill="#912F2F"/><path d="M370.359 221.257s15.934-2.53 21.284 2.793c6.556 6.525 18.862 43.931 18.375 48.199-.189 1.63-6.657.872-8.874-1.454-11.054-11.596-26.9-40.86-30.785-49.538zm30.954 104.446c-11.896 3.091-67.407 9.196-67.887-4.71-.117-3.398 0-7.492.268-11.931.83-13.74 3.083-30.719 4.163-40.062.495-4.282-1.15-23.464.112-33.916.141-1.351.398-2.687.766-3.995 2.398-7.886 13.172-10.026 18.702-10.215l16.69-.569s17.232 19.259 19.63 25.177c2.398 5.919 3.182 26.174 5.045 35.981 1.864 9.808 8.296 42.738 2.511 44.24z" fill="#BC3F3F"/><path d="M368.53 278.69s-9.278 28.509-34.835 30.372c.83-13.74 3.083-30.719 4.163-40.062.495-4.282-1.15-23.464.112-33.916.331.07.633.257.983.322 28.139 5.439 32.132 37.343 29.577 43.284z" fill="#A53D38"/><path d="M409.21 272.95s-16.748 5.497-37.16-3.319c0 0-5.559-.525-8.318.176 0 0 .593-5.515 3.291-7.016 2.697-1.502 14.3 1.745 17.771 1.267 7.58-1.042 20.79-1.858 24.416 8.892z" fill="#EF9E67"/><path d="M394.284 260.115s1.571-13.62-3.757-21.829c0 0 1.882-.641 3.232 1.492 1.35 2.133 10.76 22.366 6.28 23.856-4.48 1.49-5.755-3.519-5.755-3.519z" fill="#A53D38"/><path d="M369.827 262.389c-.241.003-7.912 1.004-9.27 1.964-1.359.961-.16 4.318 2.397 4.638 2.558.32 6.873-6.602 6.873-6.602z" fill="#EF9E67"/><path d="M348.855 267.55s21.853-.798 41.672-4.635c0 0 3.624.031 3.198 3.197-.426 3.165-34.355 20.886-41.814 17.473l-3.056-16.035zm41.672-4.635s2.319-2.8 3.757-2.8c1.437 0 5.194 1.839 5.755 3.519.561 1.68-4.446.478-6.314 2.478-1.868 2-3.198-3.197-3.198-3.197z" fill="#FFB27D"/><path d="M357.44 220.874s-18.361.042-21.047 6.644c-4.902 12.046 11.256 52.018 15.517 56.067 1.835 1.743 10.324-1.003 10.324-12.515 0-5.971-.429-40.853-4.794-50.196z" fill="#BC3F3F"/><path d="M348.138 321.908s11.818 4.081 10.155 17.704c0 0-1.091 5.523-4.494 3.073-3.403-2.451-1.807-1.998-6.666-5.351-4.858-3.352-8.029-8.635-7.475-12.833l8.48-2.593z" fill="#FFB27D"/><path d="M348.679 322.781l-6.999 8.497c-.161.194-.371.34-.607.426a1.42 1.42 0 01-.739.059c-6.56-1.208-29.14-15.769-36.536-21.709a22.217 22.217 0 01-1.829-1.599c-2.759-2.811-12.268-16.682-19.018-29.034-3.885-7.116-6.857-13.726-7.091-17.431-.841-13.223 6.111-31.715 6.111-31.715 20.568 7.161 22.731 23.59 22.731 23.59l11.403 42.456 32.295 24.151a1.61 1.61 0 01.279 2.309z" fill="#739AF0"/><path d="M303.799 310.054a22.068 22.068 0 01-1.83-1.599c-2.758-2.811-12.268-16.682-19.017-29.034-.875-7.465-.273-14.468 2.801-19.365 0 0 17.485 30.78 18.046 49.998z" fill="#4A82D3"/><path d="M291.948 432.374l-3.497 14.589-2.164 9.028-7.204 30.051s-6.166 1.903-12.572 0a109.548 109.548 0 01-2.443-22.35c-.036-6.486.559-13.649 2.454-20.413a46.862 46.862 0 013.002-7.979c10.163-20.771 22.424-2.926 22.424-2.926z" fill="#FFB27D"/><path d="M297.92 494.826h-33.852s-.534-5.124.955-10.028c.22-.734.489-1.453.805-2.151 0 0 7.558 1.713 14.073 0 0 0 6.127 5.217 9.832 6.82 3.7 1.601 7.795.733 8.187 5.359z" fill="#2B478B"/><path d="M288.451 446.963l-2.164 9.028a52.144 52.144 0 01-22.219 7.702c-.036-6.487.559-13.65 2.454-20.414 3.112-1.578 6.283-2.403 8.98-1.934 6.718 1.175 10.713 3.63 12.949 5.618z" fill="#E8945B"/><path d="M280.338 494.826h-16.27s-.534-5.125.955-10.029c4.086 1.272 12.397 4.462 15.315 10.029z" fill="#1F396D"/><path d="M264.964 432.374l-3.498 14.589-2.161 9.028-7.204 30.051s-6.166 1.903-12.575 0a109.686 109.686 0 01-2.44-22.35c-.039-6.486.559-13.649 2.452-20.413a46.866 46.866 0 013.003-7.979c10.161-20.771 22.423-2.926 22.423-2.926z" fill="#FFB27D"/><path d="M238.842 482.642s7.558 1.718 14.075 0c0 0 6.127 5.222 9.83 6.825 3.702 1.603 7.797.732 8.187 5.359h-33.852s-.706-6.759 1.76-12.184z" fill="#2B478B"/><path d="M261.466 446.963l-2.161 9.028a52.176 52.176 0 01-22.219 7.702c-.039-6.487.559-13.65 2.452-20.414 3.114-1.578 6.282-2.403 8.982-1.934 6.718 1.175 10.711 3.63 12.946 5.618z" fill="#E8945B"/><path d="M299.011 445.996a6.896 6.896 0 01-6.659 5.096h-54.28a7.006 7.006 0 01-5.145-2.246 7.026 7.026 0 01-1.848-5.303c.57-7.397 2.605-19.479 3.493-27.637.37-3.393.539-6.103.325-7.516-5.479-36.27-10.076-78.99-9.519-87.158.079-1.15.135-1.743.135-1.743s3.953-.334 9.967-.568c17.478-.69 52.372-.568 58.17 10.865 5.904 11.651 9.471 89.004 9.471 89.004.863 7.228-2.186 20.084-4.11 27.206z" fill="#C65447"/><path d="M234.572 415.907c.37-3.393.539-6.103.325-7.517-5.479-36.27-10.076-78.989-9.519-87.158.079-1.15.135-1.743.135-1.743s3.953-.333 9.967-.568c9.041 5.332 14.927 14.412 14.927 14.412s-1.82 67.872-15.835 82.574zm26.85-239.455c0-4.027 2.52-7.445 6.856-6.358 3.903.976 7.713.931 7.713 4.958 0 4.026-3.261 8.687-7.285 8.687a7.288 7.288 0 01-7.284-7.287z" fill="#B2443B"/><path d="M266.041 211.826s-22.589-20.352-2.141-34.761c0 0 6.103-1.628 9.204-1.046 0 0 11.114-3.254 17.62 4.299 6.506 7.553 9.329 13.016 3.754 19.755-5.575 6.739-28.437 11.753-28.437 11.753z" fill="#C65447"/><path d="M240.12 334.75s5.576 11.192-5.144 19.75c0 0-4.647 3.182-5.359-.953-.712-4.135.11-2.697-1.012-8.491s.313-11.789 3.646-14.398l7.869 4.092zm44.421-123.114s-.277 3.049-.793 7.168a210.186 210.186 0 01-.921 6.574 126.105 126.105 0 01-.857 4.897l-6.992 23.63-16.424-26.588s3.86-3.193 9.091-20.505c.049-.185.083-.285.083-.285l16.813 5.109z" fill="#FFB27D"/><path d="M294.11 328.216c.214 2.654-.457 3.139-.457 3.139s-10.098 3.663-35.493 2.394a787.052 787.052 0 01-7.752-.417c-16.367-.97-25.12-1.977-25.12-1.977s-13.404-30.956 11.779-69.092a122.018 122.018 0 0110.098-13.178c4.079-4.654 4.98-10.881 6.522-16.797.442-1.698-.834-2.072-.198-3.673 0 0 4.592-1.298 5.065-1.298 2.61 2.299 6.051 6.768 14.59 7.652 5.773.604 8.033-2.654 8.856-4.604 2.201.796 4.482 2.171 6.35 3.068 15.473 7.434 16.895 21.847 16.895 21.847s-14.222 46.781-15.103 52.62c-.395 2.6 2.868 6.638 3.968 20.316z" fill="#739AF0"/><path d="M283.749 218.804c-.253 2.011-1.105 7.519-1.465 9.812-17.39-6.782-15.112-20.001-14.639-21.804.05-.185.084-.285.084-.285s9.201 6.534 16.02 12.277z" fill="#E8945B"/><path d="M287.474 221.142s-20.084.644-20.293-11.875c-.21-12.52-2.941-20.869 9.875-21.809 12.815-.94 15.384 3.795 16.471 7.957 1.086 4.162-.832 25.235-6.053 25.727z" fill="#FFB27D"/><path d="M289.23 185.583s-1.259 20.902-25.744 18.659c0 0 .521-28.947 25.744-18.659zm-4.687 2.076s4.687 8.841 9.974 11.208c0 0 7.633-10.958-9.974-11.208zm0 0s6.166 10.416 9.278 13.126c0 0 8.329-12.876-9.278-13.126z" fill="#C65447"/><path d="M250.408 333.332c-16.367-.97-25.12-1.977-25.12-1.977s-13.404-30.956 11.779-69.092c5.1 11.888 17.122 43.664 13.341 71.069z" fill="#4A82D3"/><path d="M258.556 227.317s-19.43 3.99-28.086 14.017c-6.632 7.685-13.888 45.256-13.888 51.463 0 5.931 6.817 37.471 11.071 43.518a1.418 1.418 0 001.298.599l10.943-1.163a1.61 1.61 0 001.105-.617 1.592 1.592 0 00.315-1.225l-6.147-39.872 21.579-38.292s12.726-15.09 1.81-28.428z" fill="#739AF0"/><path d="M341.909 484.031s1.648 3.213 5.294 4.007c2.296.502 4.263 1.695 5.487 3.377a2.146 2.146 0 01.187 2.234 2.14 2.14 0 01-1.906 1.177h-18.513a2.661 2.661 0 01-2.648-2.931c.138-1.373.282-2.969.345-4.196.138-2.676 2.815-4.827 2.815-4.827l8.939 1.159z" fill="#2C3A64"/><path d="M346.103 437.325c.773 14.079-1.147 46.09-1.147 46.09s-1.291 3.571-9.442 4.421a24.428 24.428 0 01-8.295-.676 1650.327 1650.327 0 01-4.565-21.696c-10.062-49.384-13.988-79.893-13.988-79.893l39.72-9.238s-1.742 27.881-2.253 46.896c-.16 5.936-.199 11.009-.03 14.096z" fill="#35488B"/><path d="M348.386 376.333s-1.742 27.881-2.253 46.896l-23.479 42.235c-10.062-49.384-13.988-79.893-13.988-79.893l39.72-9.238z" fill="#2C3A64"/><path d="M308.453 312.477s-15.369-7-26.997-.879c-11.626 6.126-4.518 56.66 12.11 61.559 0 0 31.15 9.968 14.887-60.68z" fill="#35488B"/><path d="M352.912 388.119a1.467 1.467 0 00-.151-.199c-.636-.967-2.019-4.439-2.019-4.439l-2.495 3.269c-.063.072-1.05-.699-1.102-.615l.246 8.45 2.479-.586a1.748 1.748 0 001.065-.771l2.002-3.175a1.783 1.783 0 00-.025-1.934zm-11.457-83.497s4.895.014 7.817 6.897c6.06 14.269 3.428 45.062 3.061 49.472 0 0 2.08 8.757-1.012 23.899l-4.029 2.392s-6.206-59.837-5.447-65.75c.757-5.91-.39-16.91-.39-16.91z" fill="#E8945B"/><path d="M309.685 484.031s1.647 3.213 5.293 4.007c2.296.502 4.264 1.695 5.487 3.377a2.137 2.137 0 01.188 2.234 2.143 2.143 0 01-1.907 1.177h-18.51a2.666 2.666 0 01-2.531-1.832 2.658 2.658 0 01-.119-1.099c.137-1.373.281-2.969.344-4.196.138-2.676 2.815-4.827 2.815-4.827l8.94 1.159z" fill="#2C3A64"/><path d="M322.563 248.179c-3.959 0-8.933 1.705-11.601 4.3-2.835 2.755-5.782 2.895-7.883 6.148-2.19 3.393-3.544 6.917-2.445 11.688 1.201 5.212.956 10.254 4.23 14.082 1.618 1.894 4.257 2.108 6.098 3.848 3.378 3.195 7.218 4.208 11.601 4.208 8.259 0 13.399-4.897 17.627-10.996 3.385-4.886 2.715-8.182 3.509-12.362 2.501-13.158-8.469-20.916-21.136-20.916z" fill="#35488B"/><path d="M334.19 301.218l-15.788 8.074-3.164-10.96s2.013-3.792 2.921-10.003c.435-2.987.545-6.011.327-9.021l12.863 6.59a24.307 24.307 0 00-.512 2.947c-.219 1.896-.315 4.455.223 6.885.464 2.086 1.397 4.079 3.13 5.488z" fill="#FFB27D"/><path d="M297.615 380.622s-3.001 39.807-2.332 103.24a24.422 24.422 0 007.986 2.345c8.156.807 10.141-2.424 10.141-2.424s8.34-30.962 10.425-44.914c1.922-12.86 14.544-59.273 14.544-59.273l-40.764 1.026z" fill="#35488B"/><path d="M344.628 302.323c-1.404-.658-5.808-2.424-12.433-3.513.07 2.271-.536 4.388-4.518 4.911-5.301.69-10.037-2.929-12.437-5.386v-.003s-3.737.402-8.093 1.355a50.936 50.936 0 00-6.614 1.874c-2.546.938-4.743 2.106-5.917 3.544h-.003v.005c-4.076 5.005-10.785 20.081-10.785 20.081s11.168 4.144 13.983 6.559l.065.539 1.749 14.519-5.205 28.92a4.25 4.25 0 00-.07.755 4.27 4.27 0 003.263 4.139s.448.075 1.271.188c5.519.775 27.918 3.447 45.48-1.319a8.541 8.541 0 006.224-8.935l-2.864-35.943c1.528-.261 3.292-.539 4.725-.699 1.193-.131 2.15-.173 2.549-.056 0 0-1.985-28.07-10.37-31.535z" fill="#F99746"/><path d="M311.487 355.666c-.223 10.094-6.832 21.949-12.603 25.143a46.812 46.812 0 01-1.271-.187 4.27 4.27 0 01-3.263-4.139c.001-.254.024-.506.069-.756l5.206-28.919-1.749-14.52c.086-.252.129-.39.129-.39s13.875 5.943 13.482 23.768zm40.962-21.752c-1.469.16-4.734.699-4.734.699l-1.652-15.059s5.523 10.617 6.386 14.36z" fill="#ED7D2B"/><path d="M295.348 370.56l1.352-7.51c22.893-33.138 24.626-39.085 14.332-53.959-2.95-4.263-8.313-6.926-10.499-7.53a50.936 50.936 0 016.614-1.874c2.172 1.022 4.171 2.025 5.722 3.369 31.42 27.212-17.521 67.504-17.521 67.504z" fill="#35488B"/><path d="M308.841 339.122c.568-.04 3.038-1.28 3.038-1.28s1.239-9.188 10.204-9.808c0 0 3.734.023 2.968 2.573-.767 2.55-.848 1.443-1.846 5.063-.998 3.621-3.603 6.379-6.375 6.543l-2.842.771s-6.641-3.754-5.147-3.862zm3.038-1.28s-15.042 1.366-17.266 2.351c0 0 1.221-3.301 3.391-8.294-1.96-1.93-8.408-4.801-12.676-6.115-3.256 8.304-4.507 16.533-2.679 24.462a1.915 1.915 0 001.787 1.475c4.813.225 20.784.144 32.383-9.611l-4.94-4.268z" fill="#FFB27D"/><path d="M331.061 295.73c-7.314-.196-12.901-7.401-12.901-7.401l12.678.516c-.218 1.896-.315 4.455.223 6.885z" fill="#E8945B"/><path d="M331.758 291.309s-16.162 1.971-16.507-9.42c-.345-11.39 6.391-18.771 10.887-18.686 8.966.167 10.445 3.793 11.486 7.567 1.041 3.774 1.573 19.737-5.866 20.539z" fill="#FFB27D"/><path d="M327.436 284.744s.351 1.42 3.889 1.159c0 0 2.972-.219 2.864-1.784 0 0-2.898-1.08-6.753.625z" fill="#fff"/><path d="M330.14 263.309s-13.811-.009-10.638 9.478c2.001 5.98-4.652 6.908-4.652 6.908l-3.2-9.584 2.006-7.465 16.484.663z" fill="#35488B"/><path d="M807.165 297.505c-15.211-3.874-31.934-27.484-31.934-27.484l4.282-3.715c4.437 5.23 22.873 14.237 22.873 14.237-.1-4.786.029-9.151.329-13.126 2.046-27.005 12.22-36.001 14.999-37.976.225-.167.461-.319.705-.456l.027.569c.039.802.113 2.419.19 4.637.563 16.531 1.239 66.553-11.471 63.314zm-27.652-31.199c1.838 1.767-.061-.638 0 0-1.839-1.768-5.479-4.171-6.527-3.977-1.043.196-4.597 6.103-2.92 10.172 1.676 4.07 5.165-2.48 5.165-2.48l4.282-3.715z" fill="#D9935C"/><path d="M773.214 262.597s2.734-3.051 5.465-.719c2.731 2.331-.183 7.309-2.549 8.669-2.371 1.359-3.13 2.069-3.13 2.069l.214-10.019z" fill="#D9935C"/><path d="M840.282 454.516a178.17 178.17 0 01-2.981 10.459c-.226.706-.446 1.391-.667 2.063-.113.338-.226.667-.329.994-.221.645-.435 1.283-.652 1.903-.281.809-.563 1.599-.84 2.358-.203.564-.403 1.119-.606 1.664-3.085 8.274-5.668 13.516-5.668 13.516l-6.15-.421s2.31-10.982 2.77-26.713a189.154 189.154 0 00.081-5.429c0-.523 0-1.048-.004-1.578-.122-13.552-1.799-29.56-7.151-44.848a293.58 293.58 0 01-9.785-34.565c-7.359-33.923-5.629-56.205-5.629-56.205l34.573 4.043 1.612.194c.148 15.886.552 37.453.915 54.32.06 2.926.117 5.713.173 8.305.239 10.827.417 18.229.417 18.229 6.652 14.321 4.234 34.538-.079 51.711z" fill="#CB7D45"/><path d="M830.385 198.943s8.178 6.969.68 14.989c0 0 6.249.613 8.363-1.119-.214.44-.482.851-.798 1.225 0 0 6.986.25 9.868-1.93 2.887-2.181 1.032-37.945-18.361-33.948 0 0-16.437-1.24-14.907 17.787 1.535 19.028-4.671 19.031-4.671 19.031s1.723.85 2.56.85c0 0 1.214-.465 1.46-1.139 0 0-.246 1.06-.555 1.396 0 0 6.7.633 10.042-1.896 3.342-2.53 7.272-11.321 6.319-15.246z" fill="#233862"/><path d="M856.78 313.83c-6.535-14.659-9.659-18.806-9.771-23.418-.084-3.648 1.714-7.585 5.207-17.237a36.102 36.102 0 001.738-6.975c2.765-18.607-7.991-38.721-14.677-40.089-1.859-.492-5.01-7.213-4.971-18.041l-.837.164-14.075 2.789s.32 4.433.329 8.606c.009 3.479-.178 7.018-.967 7.433a21.046 21.046 0 00-1.935.278s-11.91 8.369-12.681 19.718c-1.023 15.162 9.659 33.138.185 63.442-9.677 30.949 56.065 11.431 52.455 3.33z" fill="#D9935C"/><path d="M819.395 211.024s.32 4.432.329 8.605c7.878-.221 12.038-7.408 13.746-11.394l-14.075 2.789z" fill="#CB7D45"/><path d="M834.921 206.701s4.126-6.524 5.118-12.102c.707-3.984-1.321-18.747-16.151-16.621a20.132 20.132 0 00-8.352 3.161c-3.222 2.175-7.869 6.872-2.672 19.754l1.347 4.354 20.71 1.454z" fill="#233862"/><path d="M816.764 214.975s18.634.309 18.643-11.304c.016-11.613 2.427-19.394-9.469-20.082-11.896-.687-14.211 3.743-15.159 7.619-.944 3.873 1.136 23.389 5.985 23.767z" fill="#D9935C"/><path d="M817.455 183.305s5.097 13.625 12.928 15.638 11.225-.083 11.225-.083-6.004-4.773-7.252-13.106c0 0-13.057-8.933-16.901-2.449zm1.262 1.107s-3.813 3.042-4.742 5.998c-.923 2.958-1.343 9.045-3.116 8.837 0 0-3.847-9.259.473-14.499 4.581-5.553 7.385-.336 7.385-.336z" fill="#233862"/><path d="M881.015 329.405l-5.591 1.677s-18.456-30.633-20.133-38.603c-.548-2.595-1.891-7.787-3.455-13.606-3.24-12.049-7.423-26.791-7.423-26.791l-1.374-5.968-4.701-20.352s8.996.92 14.253 3.12c1.747.726 3.076 1.594 3.536 2.613 3.869 8.504 7.727 29.961 10.436 45.268 1.512 8.531 2.668 15.153 3.267 16.555 1.677 3.916 6.804 25.457 11.185 36.087z" fill="#D9935C"/><path d="M818.01 184.872s3.632 14.265 13.514 18.835c0 0-9.882-8.763-10.718-18.183-.84-9.417-2.796-.652-2.796-.652z" fill="#233862"/><path d="M880.62 328.469s1.699 4.013 3.47 5.129c1.771 1.116 3.455 3.806 3.82 5.97.676 3.971-2.366 6.43-4.604 6.43s-4.372-3.048-5.686-10.337c-.076-.399-2.197-4.579-2.197-4.579l5.197-2.613zm-20.503 123.069c-1.99 21.224-10.742 34.95-10.742 34.95l-2.99 2.724s-2.723-15.543-4.686-33.334c-1.872-16.909-4.441-34.806-7.346-40.274-4.342-8.157-7.54-24.852-9.845-42.483-3.809-29.183-5.156-60.955-5.156-60.955l35.053-1.738c3.529 5.927 5.059 15.656 5.426 26.717.385 11.627-.532 24.726-1.798 36.436-1.776 16.393-4.243 30.056-4.818 33.127a.027.027 0 01-.005.015 1.83 1.83 0 00.237 1.175c6.975 13.814 7.98 29.614 6.67 43.64z" fill="#D9935C"/><path d="M819.208 265.093c-.789 19.267-3.666 38.343-12.052 37.117-10.278-1.502-12.953-11.097-13.498-18.233-.209-2.64-.16-5.294.146-7.925 0 0 5.062-.022 5.878-.778 3.887-3.589 2.733-38.797 4.653-42.451 1.924-3.657 14.398-6.004 14.398-6.004s1.259 19.231.475 38.274z" fill="#EE9849"/><path d="M819.206 265.093c-.788 19.268-3.666 38.344-12.051 37.117-10.279-1.501-12.953-11.097-13.499-18.233 2.522-.126 6.964-.742 8.728-3.433 2.526-3.856 10.413-28.674 10.413-28.674s3.099 5.571 6.409 13.223z" fill="#E58638"/><path d="M840.282 454.516a177.4 177.4 0 01-2.981 10.459c-.225.706-.446 1.391-.667 2.063-.113.338-.225.667-.329.994-.221.645-.435 1.283-.651 1.903-.282.81-.564 1.599-.841 2.358-.203.564-.403 1.119-.606 1.664-3.085 8.275-5.668 13.517-5.668 13.517l-6.149-.422s2.31-10.982 2.769-26.712a181.718 181.718 0 00.081-5.429c0-.523 0-1.049-.004-1.579-.122-13.552-1.798-29.559-7.151-44.848a293.384 293.384 0 01-9.784-34.565c3.653.755 6.868-.016 16.207-.798.98-.086 5.672 5.729 10.305 13.419.239 10.827 5.548 16.265 5.548 16.265 6.653 14.321 4.235 34.538-.079 51.711z" fill="#233862"/><path d="M860.117 451.538c-1.989 21.224-10.742 34.95-10.742 34.95l-2.99 2.724s-2.723-15.543-4.685-33.334c-1.873-16.91-4.442-34.807-7.347-40.274-4.342-8.157-7.54-24.852-9.845-42.483 3.225 1.341 14.206 4.831 33.525.46-1.776 16.393-4.243 30.056-4.818 33.126 0 .006-.002.011-.004.016-.056.407.027.821.236 1.175 6.975 13.814 7.98 29.614 6.67 43.64z" fill="#2B478B"/><path d="M808.3 291.262s20.62 5.179 38.709-.85c0 0 9.935 21.096 12.667 30.139 2.731 9.043 7.155 27.702 7.155 27.702s-36.728 11.354-66.92 0c0 0-1.375-24.861 2.582-37.825a3562.159 3562.159 0 005.807-19.166z" fill="#233862"/><path d="M883.052 300.927c0 4.84-4.936 7.814-10.229 9.262-5.095 1.395-10.517 1.37-12.212.239-2.929-1.964-7.695-23.78-9.09-30.422a849.774 849.774 0 00-.395-1.907s-3.801 9.079-3.919 9.927c-.056.381-.099.904-.137 1.366-.036.557-.061 1.019-.061 1.019s-20.637 10.423-38.708.85c0 0-7.346-42.472-4.16-49.781 1.589-3.634 9.85-11.129 13.16-14.359.742-.729.667-2.169.381-3.484a1.52 1.52 0 011.859-1.806c2.132.555 5.956.46 10.055-.886a24.202 24.202 0 006.146-3.007.934.934 0 011.282.225c.095.13.155.282.174.442.315 2.532 1.079 7.156 2.474 7.156 1.924-.011 15.046 1.601 16.004 3.224.338.566 3.748 8.288 8.056 18.519a.143.143 0 01.009.027c8.086 19.194 19.311 47.205 19.311 53.396z" fill="#EE9849"/><path d="M851.125 278.099s-3.802 9.08-3.919 9.927c-.056.381-.099.904-.137 1.367a18.707 18.707 0 01-6.324 3.327c-6.436 1.951-9.23-10.389-8.845-16.544.381-6.157 9.483-23.729 12.512-24.094 3.028-.366 6.713 26.017 6.713 26.017zm.394 1.908l-.394-1.908c.196.621.329 1.26.394 1.908z" fill="#E58638"/><path d="M824.957 295.198c-11.747 0-16.408-3.298-16.766-3.573l-.759-5.535c.112.083 15.873 9.552 40.261.484l-.516 4.192c-9.379 3.487-16.122 4.432-22.22 4.432z" fill="#B64C41"/><path d="M883.051 300.927c0 4.84-4.935 7.814-10.228 9.262 7.299-8.696-8.678-61.314-9.082-62.658 8.086 19.194 19.31 47.205 19.31 53.396zm-43.379-75.166s-9.826 6.225-17.258 4.753c0 0-1.789-1.127.676-2.264 2.31-1.062 7.685-4.205 6.506-7.305a24.202 24.202 0 006.146-3.007.934.934 0 011.282.225c.095.13.155.282.173.442.316 2.532 1.08 7.156 2.475 7.156z" fill="#E58638"/><path d="M832.074 492.632h-3.919c-1.316-.207-2.287-.588-3.635-.766-2.046-.266-2.99.572-3.177.766a.468.468 0 00-.039.038h-16.662c-.417-.597-.018-1.984.376-3.007a2.377 2.377 0 011.564-1.427c1.765-.512 5.249-.968 8.442-3.858 1.791-1.619 8.664-5.963 8.664-5.963l.039-.009c.151.004.867.223 3.995 2.863 1.616 1.362 4.372-1.925 4.372-1.925.378.346.684.762.901 1.226.388.794.512 1.69.356 2.559-.25 1.504.555 4.293 1.197 6.182.385 1.145.714 1.955.714 1.955s.187.942-3.188 1.366z" fill="#233862"/><path d="M832.995 480.57c-.939.663-2.916 1.959-4.225 2.133-1.771.23-5.082-4.288-5.082-4.288l.039-.009c.151.004.867.223 3.995 2.863 1.616 1.362 4.372-1.925 4.372-1.925.378.346.684.762.901 1.226zm-.921 12.062h-3.919c-1.316-.207-2.287-.588-3.635-.766-2.046-.266-2.99.572-3.177.766a.468.468 0 00-.039.038h-16.662c-.417-.597-.018-1.984.376-3.007.507-.451.654 1.955.929 2.34.281.386 13.597.14 14.361-.419.771-.559 3.081-1.54 6.297-.769 2.798.665 6.92-1.048 7.943-1.504.385 1.145.714 1.955.714 1.955s.187.942-3.188 1.366z" fill="#466AA5"/><path d="M853.01 492.632h-3.925c-1.309-.207-2.281-.588-3.628-.766-2.049-.266-2.991.572-3.18.766a.23.23 0 00-.032.038h-16.667c-.419-.597-.018-1.984.377-3.007a2.372 2.372 0 011.562-1.427c1.766-.512 5.248-.968 8.441-3.858 1.794-1.619 8.667-5.963 8.667-5.963l.038-.009c.149.004.868.223 3.996 2.863 1.613 1.362 4.369-1.925 4.369-1.925.378.346.684.762.902 1.226.389.793.514 1.69.356 2.559-.248 1.504.554 4.293 1.199 6.182.385 1.145.712 1.955.712 1.955s.189.942-3.187 1.366z" fill="#233862"/><path d="M853.93 480.57c-.94.663-2.916 1.959-4.225 2.133-1.769.23-5.08-4.288-5.08-4.288l.038-.009c.149.004.868.223 3.996 2.863 1.613 1.362 4.369-1.925 4.369-1.925.378.346.684.762.902 1.226zm-.92 12.062h-3.925c-1.309-.207-2.281-.588-3.628-.766-2.049-.266-2.991.572-3.18.766a.23.23 0 00-.032.038h-16.667c-.419-.597-.018-1.984.377-3.007.507-.451.651 1.955.928 2.34.282.386 13.596.14 14.366-.419.767-.559 3.076-1.54 6.292-.769 2.797.665 6.921-1.048 7.944-1.504.385 1.145.712 1.955.712 1.955s.189.942-3.187 1.366z" fill="#466AA5"/><path d="M1013.37 411.758c-2.37 6.049-14.476 18.506-26.958 30.268-14.912 14.053-30.348 27.116-30.348 27.116s-7.056 2.155-3.982-8.234c0 0 17.019-31.282 24.329-40.517a98.917 98.917 0 016.267-7.145 100.678 100.678 0 019.239-8.524s-.958-1.54-2.51-4.203c-7.597-13.011-29.399-52.861-22.666-70.55 8.106-21.315 28.257-30.913 28.257-30.913s6.392 26.967 11.782 54.689c4.96 25.509 9.08 51.653 6.59 58.013z" fill="#F99746"/><path d="M1006.78 353.745c-3.71 17.074-10.14 41.225-17.373 46.774-7.597-13.011-29.399-52.861-22.666-70.55 8.106-21.315 28.257-30.913 28.257-30.913s6.392 26.967 11.782 54.689zm-20.368 88.281c-14.912 14.053-30.348 27.116-30.348 27.116s-7.056 2.155-3.982-8.234c0 0 17.019-31.282 24.329-40.517a98.917 98.917 0 016.267-7.145c-.239 7.986-.009 21.534 3.734 28.78z" fill="#ED7D2B"/><path d="M1003.88 339.296s-17.662-44.346-16.731-45.626c.577-.801 1.699-24.995 2.465-43.176.464-11.058.798-19.896.798-19.896s7.826 2.788 9.698 21.835c.36 3.675.57 7.134.7 10.362.53 13.517-.46 23.038 1.56 27.54 2.5 5.578 1.6 31.037 2.37 33.602.77 2.566 4.75 8.976-.86 15.359z" fill="#FFB27D"/><path d="M989.915 309.747l-1.408-5.197c-9.916 4.291-39.065-1.984-39.065-1.984s-8.687 10.295-4.212 31.188c2.182 10.197 9.9 53.763 13.066 66.524a357.513 357.513 0 002.389 9.212c0 .009.004.009.004.013a1.87 1.87 0 01-.13 1.193 61.033 61.033 0 00-3.09 10.175c-7.211 33.805 12.545 71.141 12.545 71.141l3.376-1.986s1.314-45.051 4.816-65.383c.597-3.454 1.253-6.191 1.976-7.878 2.114-4.912 3.597-12.65 4.633-21.743 1.959-17.187 2.31-39.216 2.198-56.166.333-.034 2.902-29.109 2.902-29.109z" fill="#F99746"/><path d="M945.182 315.257c-4.034-6.105 9.798-31.036 9.305-33.388-.967-4.633-3.246-9.767-5.474-14.38-2.236-4.613-4.424-8.711-5.201-11.277.716-1.001 1.422-1.939 2.073-2.825.991-1.362 1.855-2.611 2.409-3.781.615-1.274.874-2.464.577-3.61a17.498 17.498 0 00-.902-2.581 24.127 24.127 0 00-.552-1.191c-2.062-4.123-5.138-7.478-5.138-7.478 4.87-3.123 12.546-4.714 12.611-4.484a21.323 21.323 0 011.485-.427 54.651 54.651 0 013.628-.793c1.751-1.754 3.84-8.256 3.211-17.836l.845.11 14.184 1.917s-.043 4.434.196 8.592c.194 3.251.568 6.329 1.278 7.003 1.097.088 1.76.153 1.76.153s0 .004.009.011a.07.07 0 00.024.032c.798.065 1.535.133 2.207.212a49.512 49.512 0 013.281.46c.061.015.117.027.173.036 2.423.446 3.241.865 3.241.865v.043c-.117 4.471 7.098 12.29 6.591 22.404-.02.381-3.686 26.893-3.671 27.285.296 7.551 3.989 28.807 3.989 28.807 3.379 6.581-49.971 12.4-52.139 6.121z" fill="#FFB27D"/><path d="M958.303 177.125c-.263-.735-3.353-8.558-15.67-5.136 0 0 6.215-1.172 8.083 1.137 0 0-5.107-1.971-8.099.124-2.993 2.094-3.112 8.531-2.524 10.452.581 1.923 4.369 7.517 6.641 7.377a6.769 6.769 0 002.56-.803 30.787 30.787 0 00-.719 3.439c-1.717 11.516 6.366 19.696 10.145 17.322 2.423-1.524 4.588 2.746 4.588 2.746l19.108-28.852s-15.563-16.533-24.113-7.806z" fill="#2C3A64"/><path d="M978.249 213.237s-.052 4.43.196 8.59c-7.858.259-12.44-6.644-14.384-10.509l14.188 1.919z" fill="#ED985F"/><path d="M981.107 217.011s-18.535 1.445-19.258-10.118c-.724-11.564-3.602-19.164 8.204-20.576 11.806-1.411 14.382 2.857 15.561 6.658 1.178 3.801.295 23.364-4.507 24.036z" fill="#FFB27D"/><path d="M984.67 186.581c-3.081-3.303-5.204-2.407-6.353-1.287-10.483-4.955-16.516 3.693-16.516 3.693-.732 8.371-6.422 13.494-6.422 13.494s3.511 1.882 11.186-.602c2.344-.76 4.367-2.584 6.049-4.748-2.831 5.485-6.894 9.561-6.894 9.561 9.048-4.879 11.996-18.068 12.282-19.461 1.199.949 3.565 3.023 4.381 5.149 1.104 2.886 1.892 8.924 3.643 8.608 0 0 3.263-9.455-1.356-14.407z" fill="#2C3A64"/><path d="M992.158 493.079h-28.766s-1.075-4.591.813-7.713c1.67-2.762.642-4.64-.081-6.989 1.305.534 2.864 1.386 4.719 1.278 1.431-.086 3.68-1.139 5.009-1.907 1.24 1.413 5.808 7.825 7.464 9.013 1.879 1.353 10.262.873 10.842 6.318zm-42.756-.672l-10.826-26.665s3.845-2.726 7.45-2.151c3.187.512 4.404-.676 6.055-2.683a11.236 11.236 0 00.978 4.834c.62 1.296 1.787 2.455 3.004 3.4-.84 1.677-4.412 8.854-4.892 10.835-.543 2.251 3.056 9.842-1.769 12.43z" fill="#233862"/><path d="M993.332 280.331c-.011-.218 1.127-8.551 2.141-15.951 2.224-.246 4.917-.766 7.247-1.86-.12-3.229-2.27-30.847-13.877-32.401a22.851 22.851 0 00-1.672-.385 1.784 1.784 0 01-.173-.036 38.769 38.769 0 00-3.117-.447c-.108-.011-.164-.015-.164-.015s3.459 9.827 3.393 10.982c-.065 1.154-11.182 1.54-18.487 1.637-7.25.094-11.329-12.038-11.394-12.227-.286.068-.572.135-.854.21-.41.103-10.1 1.58-14.096 4.908 0 0 3.081 3.355 5.138 7.481.196.392.379.789.552 1.188.367.836.668 1.699.902 2.581.297 1.148.038 2.338-.577 3.61-.554 1.17-1.418 2.421-2.409 3.783-.651.884-1.357 1.824-2.073 2.823a25.971 25.971 0 001.248 3.147v.005c1.041 2.297 2.488 5.102 3.953 8.127 2.228 4.613 4.507 9.747 5.473 14.378.494 2.351-13.338 27.287-9.304 33.388.642 1.856 5.751 2.654 12.549 2.692 16.196.083 41.972-4.171 39.59-8.813 0 0-3.694-21.254-3.989-28.805z" fill="#2B478B"/><path d="M957.731 317.949c-6.798-.038-11.907-.836-12.549-2.692-4.034-6.101 9.798-31.036 9.304-33.388-.966-4.631-3.245-9.764-5.473-14.377-1.465-3.026-2.912-5.831-3.953-8.128v-.002l.906-3.576s14.717 17.123 18.093 25.204c2.648 6.335-3.536 27.925-6.328 36.959z" fill="#233862"/><path d="M950.736 306.338l-2.91 5.048c-18.717-7.417-30.643-24.128-30.643-24.128-.653-9.49 3.784-20.398 9.098-29.808.883-1.56 1.783-3.073 2.699-4.539 3.757 3.213 9.01 7.42 14.01 10.48a1102.15 1102.15 0 01-2.713 4.482c-4.146 6.845-9.512 15.611-10.206 16.307-1.156 1.155 20.665 22.158 20.665 22.158z" fill="#FFB27D"/><path d="M941.044 269.926c-9.215-.608-16.009-12.6-16.009-12.6 7.198-12.725 17.244-22.58 17.244-22.58 25.541 9.753 2.929 32.428-1.235 35.18z" fill="#2B478B"/><path d="M950.731 306.336s1.577-.226 2.603-1.123c1.025-.897 4.295-3.434 4.487-2.647.191.787-2.371 2.005-1.024 2.196 1.344.194 3.46-.71 5.578-.385 2.114.322 5.365 5.197 4.367 5.774-1.005.579-4.658-1.346-5.62-.677-.958.677-7.822 4.431-13.3 1.912-5.474-2.516 2.909-5.05 2.909-5.05z" fill="#FFB27D"/><path d="M668.322 196.815s-13.33-.67-13.706-8.365c-.37-7.695-11.38-13.309-8.192-19.486 3.91-7.578.343-14.86 5.283-19.953 5.435-5.614 12.308-2.566 15.932-5.835 3.624-3.269 10.26-6.286 16.795-2.246 6.54 4.041 11.529 1.865 15.824 5.756 4.753 4.3 2.95 9.711 6.864 12.649 3.593 2.694 2.128 10.053-.896 16.032-2.177 4.311 2.846 8.351-5.778 13.304-3.588 2.061-2.808 7.249-13.704 8.144-4.913.401-15.56-1.899-18.422 0z" fill="#2C3A64"/><path d="M642.889 493.078s0-5.397.77-7.196c.769-1.795 3.586-9.102 3.586-9.102h11.028s2.049 6.665 2.179 8.849c.127 2.178 0 7.449 0 7.449h-17.563zm70 0s0-5.397-.771-7.196c-.766-1.795-3.587-9.102-3.587-9.102h-11.027s-2.052 6.665-2.179 8.849c-.126 2.178 0 7.449 0 7.449h17.564z" fill="#233862"/><path d="M668.722 189.99s-.39 12.024-1.927 17.41l-12.178 8.497 45.832 6.861-10.93-15.108s-3.301-16.122-1.568-22.086c1.733-5.963-19.229 4.426-19.229 4.426z" fill="#B56F40"/><path d="M668.652 191.65c0-.003 3.626 8.727 10.452 8.535 6.826-.191 8.381-7.915 8.381-7.915l-18.833-.62z" fill="#99592E"/><path d="M678.32 196.813c-4.944-.086-14.05-6.676-14.05-14.838v-12.731c0-2.981 2.08-5.418 4.615-5.418h18.873c2.539 0 4.613 2.437 4.613 5.418v12.012c0 8.556-8.374 15.658-14.051 15.557z" fill="#B56F40"/><path d="M644.27 306.07s1.929 58.928-.954 92.555c-2.889 33.627.018 80.419.018 80.419s9.226 5.086 19.225 0c0 0 10.968-64.961 10.898-80.419-.077-16.463 4.356-41.558 4.356-41.558l-7.38-48.427-26.163-2.57zm68.22 172.974s-9.221 5.091-19.222 0c0 0-10.966-64.961-10.896-80.419.034-6.955-2.089-24.09-4.559-41.558l-7.38-48.427 42.717-2.671s-3.52 59.036-.638 92.656c2.887 33.627-.022 80.419-.022 80.419z" fill="#EE9849"/><path d="M705.1 210.502v.025a121.508 121.508 0 00-15.581-2.877c-4.255 5.653-7.306 6.965-11.193 8.505-6.258-.866-11.531-8.577-11.531-8.755-6.817.699-11.412 1.95-13.285 2.532-.372.045-20.367 2.688-48.666 60.321 0 0 1.525 5.306 8.948 14.561 5.276 6.578 13.548 15.159 26.38 25.244 0 0 1.21-2.588 2.314-6.779 0 0-7.623-14.849-12.216-24.902-2.229-4.895-3.745-8.651-3.31-9.012.827-.687 10.052-8.7 16.865-14.623a61.001 61.001 0 00-.039 3.995c.372 12.876.888 25.389-.77 39.248-2.177 18.212 1.512 17.888 1.512 17.888s4.971.972 11.901 1.891c6.269.841 14.14 1.637 21.385 1.637 16.615 0 34.826-3.528 34.826-3.528 5.244.065-1.469-32.633-2.45-52.307-.225-4.57-.437-8.738-.635-12.549 6.265 5.441 20.133 17.496 21.156 18.348.432.361-1.08 4.117-3.315 9.012-4.591 10.053-12.216 24.902-12.216 24.902 1.104 4.191 2.314 6.779 2.314 6.779 12.831-10.085 21.104-18.666 26.386-25.244 7.421-9.255 8.942-14.561 8.942-14.561-28.568-58.177-47.722-59.751-47.722-59.751z" fill="#B64C41"/><path d="M656.428 317.764c-6.929-.92-11.9-1.891-11.9-1.891s-3.689.324-1.512-17.888c1.658-13.859 1.142-26.372.77-39.248-.043-1.432-.009-3.125.079-5.01 1.062 1.703 12.892 20.817 16.077 35.023 2.318 10.362-1.179 22.566-3.514 29.014z" fill="#AA413E"/><path d="M682.373 398.625c.034-6.955-2.089-24.09-4.559-41.559 2.558-10.432 8.789-20.476 8.789-20.476 7.887 22.125-4.23 62.035-4.23 62.035z" fill="#E58638"/><path d="M640.964 304.011s6.925-6.412 9.746-2.82c2.817 3.592 3.328 9.232 1.149 8.847-2.179-.386-6.666-2.435-7.303-1.409-.645 1.026-3.513 2.987-4.386 1.429-.872-1.558.794-6.047.794-6.047zm1.521-.732c-1.104 4.191-2.315 6.779-2.315 6.779-12.831-10.085-21.104-18.665-26.379-25.244 3.975-.296 9.787-1.721 16.478-6.437 4.592 10.053 12.216 24.902 12.216 24.902zm74.214.732s-6.925-6.412-9.746-2.82c-2.817 3.592-3.333 9.232-1.15 8.847 2.18-.383 6.666-2.435 7.306-1.409.64 1.026 3.511 2.987 4.383 1.429.872-1.558-.793-6.047-.793-6.047zm-1.521-.732c1.104 4.191 2.314 6.779 2.314 6.779 12.832-10.085 21.104-18.665 26.382-25.244-3.982-.296-9.789-1.721-16.48-6.437-4.59 10.053-12.216 24.902-12.216 24.902z" fill="#B56F40"/><path d="M730.71 269.365c-1.028-.854-14.99-12.993-21.226-18.406 0 0 6.222-4.665 10.067 2.133 3.849 6.8 11.159 16.273 11.159 16.273zm22.111.889s-1.521 5.305-8.942 14.56c-8.592-.12 8.942-14.56 8.942-14.56z" fill="#AA413E"/><path d="M664.27 174.407s3.436-10.486 14.683-8.852c11.248 1.635 12.221 4.04 13.418 6.832 1.196 2.791 3.504-10.198 3.504-10.198l-13.269-3.943s-16.056 1.826-17.21 4.52l-1.156 2.694.03 8.947z" fill="#2C3A64"/><path fill-rule="evenodd" clip-rule="evenodd" d="M671.439 182.228c-1.94 0-5.827-.431-6.508-3.808-.205-1.021-.013-1.93.559-2.627.629-.769 1.663-1.208 2.842-1.208h5.972c1.135 0 1.929.327 2.357.969.198.312.316.669.342 1.037a5.55 5.55 0 012.65-.049c.033-.352.15-.691.341-.988.426-.642 1.219-.969 2.357-.969h5.965c1.179 0 2.217.439 2.846 1.208.568.697.76 1.606.554 2.627-.676 3.375-4.563 3.808-6.508 3.808-.363.002-.726-.015-1.088-.05-1.816-.004-3.094-1.041-4.023-3.262-.26-.6-.414-1.24-.457-1.892a5.18 5.18 0 00-2.628.054 5.87 5.87 0 01-.455 1.838c-.931 2.221-2.206 3.258-4.029 3.262-.362.036-.725.052-1.089.05zm-3.107-7.251c-1.057 0-1.988.388-2.535 1.064-.494.602-.658 1.398-.48 2.302.351 1.732 1.654 2.839 3.869 3.29 1.091.205 2.205.258 3.31.155l.023-.002c1.647 0 2.812-.961 3.675-3.021a5.645 5.645 0 00.41-1.563c-.198.068-.315.12-.32.122a.222.222 0 01-.099.023.23.23 0 01-.211-.138.214.214 0 01-.023-.089.244.244 0 01.015-.092.224.224 0 01.125-.13c.171-.076.346-.142.525-.196a1.877 1.877 0 00-.284-.929c-.347-.528-1.035-.796-2.028-.796h-5.972zm14.019 0c-.996 0-1.681.268-2.035.796-.167.266-.263.57-.279.884a3.9 3.9 0 01.567.246.222.222 0 01.072.057.237.237 0 01.053.173.247.247 0 01-.166.202.236.236 0 01-.179-.015 2.95 2.95 0 00-.343-.158 5.7 5.7 0 00.417 1.603c.863 2.06 2.028 3.021 3.671 3.021l.025.002c1.106.103 2.221.05 3.312-.155 2.218-.451 3.518-1.558 3.865-3.29.183-.904.018-1.7-.473-2.302-.555-.676-1.481-1.064-2.542-1.064h-5.965z" fill="#2C3A64"/><path d="M638.275 313.199l-5.465 1.01s-14.947-23.06-15.376-30.09c-.416-6.714-13.886-36.098 1.884-54.444a29.188 29.188 0 012.324-2.421c.028-.03.058-.059.09-.086l.079.129c.32.534 1.573 2.8 3.042 7.807 2.296 7.828 5.14 22.357 5.812 47.453 0 0 3.666 21.486 7.61 30.642zm0 0s5.854 6.606 6.032 9.286c.185 2.679-2.136 6.052-4.737 6.629-2.6.573-.975-3.556-1.365-5.22-.395-1.657-2.094-4.175-1.99-3.422.104.753 1.145 3.7.82 4.175-.318.469-1.158.544-1.478-1.03-.32-1.578-2.939-3.418-2.423-5.109.512-1.691.09-2.998-.619-5.266-.71-2.269-1.898-4.988-1.898-4.988l4.216-.901 3.442 5.846z" fill="#F4A671"/><path d="M598.758 193.848s-.133 2.789 1.54 3.334c1.672.546-1.718 6.566-1.456 10.628.268 4.065 2.066 5.698 2.066 5.698s-.863-2.237-.381-3.619c0 0-.078 2.877 2.024 4.327 2.098 1.449 1.53 2.705 1.53 2.705s4.748-1.423 4.879-4.983c0 0 .2 1.61.043 2.278 0 0 4.092-3.078 4.29-6.624.192-3.545-3.224-6.536-4.784-6.591-1.559-.054-5.032-3.115-4.939-4.27.092-1.154-4.812-2.883-4.812-2.883z" fill="#2C3A64"/><path d="M611.866 173.922c-2.761-4.194-13.717-1.847-24.478 5.242-10.756 7.088-17.239 16.235-14.479 20.428 2.761 4.194 13.717 1.847 24.478-5.241 10.756-7.089 17.239-16.236 14.479-20.429z" fill="#E2AF64"/><path d="M635.526 483.336l-5.803 2.16s-25.196-34.964-28.3-65.73c-.554-5.49-.365-10.813.832-15.726 0 0-.25-1.409-.676-3.898-.203-1.161-.446-2.554-.728-4.157-.818-4.696-1.945-11.122-3.234-18.44-2.963-16.84-6.803-38.362-9.789-54.18l1.564-.503 16.915-5.463 3.493-11.106 12.594-3.317s2.813 5.508 5.33 31.52c.46 3.411.883 7.174 1.201 11.254a222.72 222.72 0 01-1.197 45.561 242.69 242.69 0 01-2.215 13.983c-.662 3.515-.761 8.306-.48 13.809 1.269 25.15 10.493 64.233 10.493 64.233z" fill="#2B478B"/><path d="M628.925 345.75l-27.346 54.392c-.203-1.161-.446-2.554-.728-4.157-.818-4.696-1.945-11.122-3.234-18.44-2.963-16.84-6.803-38.362-9.789-54.18l1.564-.503 16.915-5.463 3.493-11.106 15.042-4.475s.365 6.666 2.882 32.678c.46 3.411.883 7.174 1.201 11.254z" fill="#233862"/><path d="M605.81 174.4l-19.337 29.354s-2.213-4.333-4.667-2.78c-3.831 2.424-12.061-5.866-10.348-17.572.113-.764.25-1.49.399-2.182 3.86-5.562 8.142-11.756 11.215-16.109 8.884-5.366 22.738 9.289 22.738 9.289z" fill="#2C3A64"/><path d="M614.307 233.7c-2.704 2.482-6.222 4.703-10.774 6.428-17.081 6.475-25.859-7.515-29.789-17.404 2.215-1.704 4.437-2.315 5.722-2.649a57.12 57.12 0 013.682-.811c1.773-1.788 3.883-8.399 3.225-18.127l.858.108 14.414 1.916s-.039 4.505.221 8.723c.202 3.303.585 6.433 1.309 7.111 1.118.088 1.789.154 1.789.154s0 .004.009.011a90.685 90.685 0 019.334 14.54z" fill="#FFB27D"/><path d="M601.646 203.164s-.038 4.502.221 8.725c-7.982.282-12.654-6.721-14.635-10.639l14.414 1.914z" fill="#ED985F"/><path d="M604.562 206.992s-18.826 1.511-19.588-10.233c-.761-11.744-3.705-19.46 8.286-20.921 11.987-1.461 14.617 2.868 15.822 6.728 1.206 3.86.356 23.73-4.52 24.426z" fill="#FFB27D"/><path d="M608.105 176.071c-3.137-3.349-5.291-2.433-6.456-1.292-10.661-5.01-16.764 3.79-16.764 3.79-.728 8.508-6.494 13.721-6.494 13.721s3.569 1.905 11.362-.636c2.375-.778 4.428-2.635 6.132-4.838-2.865 5.58-6.982 9.728-6.982 9.728 9.183-4.975 12.147-18.379 12.433-19.797 1.214.96 3.628 3.062 4.459 5.219 1.132 2.931 1.943 9.061 3.723 8.737 0 0 3.29-9.614-1.413-14.632z" fill="#2C3A64"/><path d="M653.683 493.079h-29.216s-1.093-4.665.822-7.835c1.699-2.809 1.05-4.405-.207-6.732a11.28 11.28 0 004.919.931c1.456-.086 2.997-.746 4.35-1.531 1.252 1.436 6.636 7.539 8.322 8.75 1.911 1.371 10.422.884 11.01 6.417z" fill="#233862"/><path d="M571.059 189.183s-8.754-17.437 3.48-24.329c12.234-6.892 21.187-4.184 27.918 4.243l-31.398 20.086z" fill="#EDBD77"/><path d="M626.776 236.768c-2.342-11.728-9.6-15.085-9.6-15.085s-1.208-1.831-7.953-2.117c-1.052-.045-2.197-.262-3.475-.366-.254-.015-.516-.036-.784-.054a.042.042 0 01.009.014c.259.394 7.06 10.86 6.682 13.672-.385 2.863-25.151 1.885-26.945.437-1.436-1.166-3.937-8.935-4.868-11.976-.239-.756-.376-1.22-.376-1.22s-8.647 1.508-12.712 4.879c0 0 3.112 3.416 5.187 7.616.197.401.386.8.564 1.208.367.852.67 1.73.906 2.627.295 1.166.027 2.37-.602 3.666-.568 1.184-1.444 2.453-2.459 3.833-.667.895-1.385 1.846-2.113 2.861.511 1.709 1.183 3.758 1.924 6.074 1.53 4.768 3.353 10.657 4.654 16.997.482 2.38.426 4.837-.165 7.192a16.423 16.423 0 01-.944 2.737c-.615 1.385-.771 3.292-1.46 5.082-2.831 7.334-6.098 16.9-2.826 21.897 2.183 6.387 52.75-9.125 49.347-15.821 0 0 2.019-35.138 3.407-46.023a16 16 0 00.099-2.978c4.386-1.995 4.503-5.152 4.503-5.152z" fill="#F99746"/><path d="M620.345 167.183c-2.517-4.04-11.324-3.389-21.963.969a88.018 88.018 0 00-13.027 6.742c-5.526 3.449-10.339 7.223-14.119 10.914-7.037 6.888-10.474 13.485-8.191 17.142 2.535 4.058 11.423 3.377 22.136-1.04-.87-.949-2.089-1.749-3.376-.935-1.32.834-3.159.399-4.935-1.01-1.309-.215-2.28-.742-2.812-1.594a3.362 3.362 0 01-.404-2.286c.55-4.075 6.319-10.405 14.612-15.58 6.371-3.975 12.703-6.313 17.059-6.592 2.54-.165 4.41.367 5.226 1.684.71 1.136.554 2.719-.313 4.548.473 1.918.469 3.952.286 5.715 8.126-7.424 12.277-14.747 9.821-18.677z" fill="#FFCF83"/><path d="M591.886 280.816c-7.281 2.334-14.375 3.337-20 3.743.694-1.79 1.206-3.411 1.821-4.796.395-.882.711-1.798.944-2.737.591-2.355.647-4.812.165-7.192-1.3-6.34-4.753-17.157-6.283-21.926 4.086-9.115 8.307-4.144 8.307-4.144s12.351 5.542 17.608 15.756c5.258 10.213 3.723 19.281-2.562 21.296z" fill="#ED7D2B"/><path d="M576.124 220.772s11.757 7.519 14.765 23.371l3.559-1.132s-1.379-11.313-14.982-22.936l-3.342.697zm41.535 23.772l-3.723.246c.741-13.746-6.15-23.127-8.187-25.587a65.87 65.87 0 013.475.363c9.751 14.118 8.435 24.978 8.435 24.978zm4.619 59.571l2.644-1.138-2.596-39.384s-2.522-17.908-2.558-21.037c-.036-3.129-2.564-4.656-2.564-4.656s-18.54.979-23.766 1.272c-5.226.293-4.698 3.269-4.698 3.269s2.276 9.516 2.505 10.495c3.518 14.955-16.594 24.09-16.594 24.09s-3.263 8.45-5.799 16.542c-4.338 13.875-.464 33.778-.464 33.778.66 10.574 1.864 55.501 3.117 68.794.455 4.821.854 8.248 1.018 9.621v.009c.03.415-.077.83-.304 1.179a62.365 62.365 0 00-4.64 9.755c-12.326 32.875 1.898 73.358 1.898 73.358l3.695-1.488s8.097-45.053 14.675-64.961c1.118-3.371 2.188-6.027 3.169-7.614 2.859-4.618 5.516-12.166 7.925-21.141 4.554-16.971 8.221-39.052 10.661-56.092.334.013 3.84-23.885 12.636-34.421.074-.097.088-.171.04-.23z" fill="#2B478B"/><path d="M590.745 242.758a1.554 1.554 0 01.483-1.665 1.555 1.555 0 011.723-.192 1.556 1.556 0 01.836 1.519 1.563 1.563 0 01-1.688 1.424 1.56 1.56 0 01-1.354-1.086z" fill="#ED7D2B"/><path d="M591.012 242.676a1.57 1.57 0 01-.014-.908 1.568 1.568 0 011.327-1.121 1.561 1.561 0 011.731 1.687 1.568 1.568 0 01-1.086 1.356 1.556 1.556 0 01-1.958-1.014z" fill="#F99746"/><path d="M591.533 242.2a.228.228 0 01.271-.219.232.232 0 01.115.062.233.233 0 01.061.116.227.227 0 01-.096.231.231.231 0 01-.286-.029.217.217 0 01-.065-.161zm1.479.002a.225.225 0 01.14-.21.226.226 0 01.31.164.23.23 0 01-.095.234.234.234 0 01-.125.04.235.235 0 01-.213-.141.232.232 0 01-.017-.087z" fill="#2B478B"/><path d="M613.731 240.775a1.562 1.562 0 012.855-1.225 1.564 1.564 0 01-1.5 2.31 1.558 1.558 0 01-1.355-1.085z" fill="#ED7D2B"/><path d="M613.997 240.689a1.557 1.557 0 01.483-1.667 1.555 1.555 0 011.723-.192 1.559 1.559 0 01.838 1.519 1.565 1.565 0 01-2.274 1.255 1.56 1.56 0 01-.77-.915z" fill="#F99746"/><path d="M614.52 240.216a.222.222 0 01.138-.211.218.218 0 01.087-.017.229.229 0 01.164.388.228.228 0 01-.389-.16zm1.478.002a.23.23 0 01.23-.228c.06 0 .118.024.16.067a.228.228 0 01-.322.322.227.227 0 01-.068-.161z" fill="#2B478B"/><path d="M573.655 196.084s-.127 2.789 1.545 3.335c1.672.546-1.724 6.565-1.455 10.63.261 4.065 2.059 5.695 2.059 5.695s-.858-2.236-.378-3.618c0 0-.077 2.877 2.023 4.326 2.101 1.45 1.535 2.706 1.535 2.706s4.741-1.42 4.877-4.98c0 0 .202 1.607.038 2.274 0 0 4.099-3.077 4.29-6.621.199-3.547-3.224-6.539-4.779-6.593-1.555-.054-5.032-3.113-4.942-4.27.09-1.157-4.813-2.884-4.813-2.884z" fill="#2C3A64"/><path d="M574.239 296.65l5.899-3.621c1.936-.072 5.751-4.297 8.926-2.345 3.176 1.953 6.29 5.208 5.192 6.512-1.104 1.303-4.836-.235-6.625.027-1.789.261-6.201 2.455-9.314 1.422-2.994-.994-9.464-5.077-9.464-5.077l5.386 3.082zm-7.484-71.698s-20.978 24.785-27.921 38.747c0 0 8.347 18.181 35.405 32.951l5.899-3.621s-8.014-3.623-8.638-4.029c-6.864-4.448-14.018-21.484-14.365-23.148-.347-1.664 15.033-16.575 19.704-22.088 4.676-5.512-2.821-21.653-10.084-18.812z" fill="#FFB27D"/><path d="M598.754 200.429s2.808 1.7 4.802 1.504c1.976-.196 3.056-2.584 3.056-2.584a16.574 16.574 0 00-7.858 1.08z" fill="#FFF2E9"/><path d="M566.754 224.952l-9.424 9.21s2.152 13.6 16.414 15.374c0 0 11.705-9.374 4.708-19.141-6.99-9.767-11.698-5.443-11.698-5.443z" fill="#F99746"/><path d="M580.139 293.029s.32-1.371 1.53-1.909c1.21-.539 2.339-1.716 2.433-1.371.097.34.174.915-.45 1.607s-1.695 1.858-3.513 1.673z" fill="#FFB27D"/><path d="M590.945 493.079h-29.221s-.699-4.453.827-7.835c1.465-3.247 3.752-4.717 3.207-8.644 1.854 1.912 4.883 4.054 9.108 3.486.517.841 3.338 5.332 5.066 6.576 1.911 1.371 10.427.884 11.013 6.417zm445.085-.456l-.56-165.446s-1.26-11.92-11.65-11.98c-11.09-.066-11.8 11.841-11.8 11.841.06.3.22.571.46.761.23.191.53.289.84.276.31.022.62-.068.88-.254.26-.187.44-.458.51-.765 0 0 .55-9.183 9.09-9.131 8.01.047 8.99 9.239 8.99 9.239l-.99 165.435 4.23.024zm-5.65-.033l6.89.042-.57-7.219s.07-1.001-1.33-1.066c-1.29-.061-3.85-.26-4.1.521-.21.685-.89 7.722-.89 7.722z" fill="#233862"/><path d="M1023.79 306.426l-.49 2.363s-11.69-.113-14.5 12.405c0 0-.77 5.21 3 4.119 3.76-1.091 3.19-3.752 8.52-5.181 5.33-1.427 8.81-2.521 9.64-6.392l.89-4.311-7.06-3.003z" fill="#FFB27D"/><path d="M1065.74 204.097s-3.17 12.157-5.9 23.27a547.157 547.157 0 00-2.86 12.057c-.74 3.366-1.17 5.643-1.01 5.898 2.29 3.779-2.08 26.719-5.48 35.038-.3.74-.71 1.603-1.21 2.562-4.74 9.162-17.32 27.131-17.32 27.131s-3.52.348-5.82-.536c-1.92-.742-3.21-3.096-3.21-3.096 1.12-1.792 5.76-22.988 11.64-34.856 2.52-5.075 6.46-52.286 11.31-58.614 4.04-5.283 19.86-8.854 19.86-8.854z" fill="#F99746"/><path d="M1055.97 245.322c2.29 3.779-2.08 26.719-5.48 35.039-.3.739-.71 1.603-1.21 2.561-4.36-19.847 3.23-47.881 3.23-47.881 1.85.744 3.32 2.282 4.47 4.383-.74 3.366-1.17 5.643-1.01 5.898z" fill="#ED7D2B"/><path d="M1087.05 474.704s1.09 17.946-2.3 18.176c-.45.03-17.17-.07-17.17-.07l-21.57-.126s.39-5.271 6.64-6.317c6.24-1.053 16.72-5.38 20.54-13.609 4.03-8.656 13.86 1.946 13.86 1.946z" fill="#0F2949"/><path d="M1119.5 474.895s1.08 17.949-2.3 18.179c-.45.027-17.18-.072-17.18-.072l-21.56-.126s.39-5.269 6.63-6.318c6.25-1.05 16.72-5.377 20.55-13.606 4.03-8.658 13.86 1.943 13.86 1.943z" fill="#163560"/><path d="M1088.34 431.472c.48 7.589 1.5 17.351 1.07 26.14-.62 12.292-1.06 22.658-1.06 22.658-8.13 2.706-22.97-.728-22.97-.728s-5.09-31.1-9.28-55.925c-1.89-11.126-3.44-20.751-4.02-25.292-1.87-14.684 2.63-92.677 2.63-92.677s22-13.926 31.02-6.626c9.01 7.3 14.55 14.418-.52 93.714-1.15 6.015 2.04 21.737 3.13 38.736z" fill="#2B478B"/><path d="M1088.34 431.472c.48 7.589 1.39 19.737.95 28.525-7.57-8.116-22.49-25.229-33.19-36.38-1.89-11.126-3.44-20.751-4.02-25.292-1.87-14.684 2.63-92.677 2.63-92.677s22-13.926 31.02-6.626c9.01 7.3 14.55 14.418-.52 93.714-1.15 6.015 2.04 21.737 3.13 38.736z" fill="#233862"/><path d="M1074.51 307.353s1.5 78.107 4.49 92.607c2.99 14.499 18.65 80.878 18.65 80.878s15.05 1.461 22.93-1.864c0 0-.32-30.701-2.88-48.751-2.39-16.869-6.77-32.297-6.09-38.384 8.93-80.223 2.87-86.89-6.68-93.478-9.55-6.588-30.42 8.992-30.42 8.992z" fill="#2B478B"/><path d="M1104.22 314.364s-5.28 10.441 4.7 18.497c0 0 4.32 3.003 5.01-.859.69-3.862-.08-2.518 1-7.934 1.08-5.411-.23-11.022-3.33-13.484l-7.38 3.78zm-43.2-127.99s5.97 9.187 4.71 17.723l8.78 21.523 16.22-24.483s-8.43-9.296-11.53-21.915l-18.18 7.152zm-2.69 7.794s21.91 1.08 22.39-12.082c.48-13.162 6.45-21.883-9.93-23.139-13.47-1.03-17.99 4.568-19.22 8.921-1.22 4.356-1.35 25.545 6.76 26.3z" fill="#FFB27D"/><path d="M1111.3 311.335c-4.71.41-11.2.917-19.07 1.364-1.57.087-3.2.178-4.87.261-23.76 1.188-33.18-2.714-33.18-2.714s-.62-.517-.41-3.303c1.12-14.364 4.2-18.592 3.84-21.324-.79-6.142-15.37-56.315-15.37-56.315s-.2-15.823 17.43-23.144a41.714 41.714 0 016.04-1.966c.76 2.052 2.85 5.486 8.25 4.886 7.99-.884 13.7-5.558 16.15-7.959.45.003.62.018.62.018a47.31 47.31 0 011.44 5.229c1.41 6.227 2.21 12.774 6 17.689 3.52 4.556 6.74 9.334 9.65 14.306 2.16 3.699 4.12 7.512 5.86 11.424 15.36 34.52 3.16 61.061-2.38 61.548z" fill="#F99746"/><path d="M1111.3 311.334c-4.71.41-11.2.918-19.07 1.364-2.06-38.691 13.91-75.743 13.91-75.743.6.426 1.16.896 1.68 1.407 2.72 2.683 4.61 6.651 5.86 11.424 4.59 17.566.49 46.034-2.38 61.548z" fill="#ED7D2B"/><path d="M1051.34 181.569s-4.36 16.912 2.86 19.338c7.23 2.426 26.46.631 26.58-20.131 0 0-10.12 5.959-14.94 5.778-4.82-.18-7.91-2.98-12.38-.834 0 0-1.63-.119-2.12-4.151z" fill="#C8D9E8"/><path d="M1090.73 201.137s15.32.435 23.35 11.02c6.15 8.112 12.45 51.475 12.41 57.999-.03 6.525-7.23 42.486-11.16 46.375 0 0-2.54.634-5.91-.038a11.973 11.973 0 01-5.68-2.801s2.18-40.07 2.21-43.829c.03-5.444-16.78-38.864-16.78-38.864s-8.73-15.909 1.56-29.862z" fill="#F99746"/><path d="M1079.8 163.095c-.35-1.346-2-2.063-2-2.063-12.32-5.451-21.37.381-21.37.381 7.62-10.116 25.87-7.875 29.66 1.313 6.2 15.002-5.31 18.05-5.31 18.05s-11.44-4.89-4.77-10.897c2.22-1.99 3.3-3.765 3.66-5.311.11-.483.16-.978.13-1.473z" fill="#C8D9E8"/><path d="M133.113 493.078s0-5.397.769-7.196c.77-1.795 3.59-9.102 3.59-9.102h11.026s2.051 6.665 2.179 8.849c.129 2.178 0 7.449 0 7.449h-17.564zm70.001 0s0-5.397-.769-7.196c-.768-1.795-3.59-9.102-3.59-9.102h-11.024s-2.053 6.665-2.179 8.849c-.128 2.178 0 7.449 0 7.449h17.562z" fill="#233862"/><path d="M158.946 189.99s-.387 12.024-1.927 17.41l-12.175 8.497 45.831 6.861-10.931-15.108s-3.299-16.122-1.569-22.086c1.731-5.963-19.229 4.426-19.229 4.426z" fill="#FFB27D"/><path d="M158.881 191.65c0-.003 3.621 8.727 10.449 8.535 6.828-.191 8.381-7.915 8.381-7.915l-18.83-.62z" fill="#ED985F"/><path d="M154.803 184.581s-2.204-11.009-3.743-14.343c-1.539-3.335-2.819-18.213 14.231-18.984 0 0 6.537.771 10.127-1.411 0 0 0 2.182-.897 2.951 0 0 5.897-1.412 10.513 3.72 4.615 5.131-3.076 23.087-2.693 27.319l-27.538.748z" fill="#2C3A64"/><path d="M182.597 169.241v12.015a14.165 14.165 0 01-1.24 5.711h-.004a18.234 18.234 0 01-6.148 7.424c-2.224 1.563-4.615 2.458-6.659 2.422-1.775-.034-4.085-.904-6.325-2.388-3.013-1.997-5.884-5.102-7.105-8.757l-.019-.054-.045-.153a11.541 11.541 0 01-.554-3.483v-12.737c0-2.98 2.078-5.415 4.615-5.415h18.869c2.539 0 4.615 2.435 4.615 5.415z" fill="#FFB27D"/><path d="M154.498 176.041s.025-7.652 6.082-8.826c6.058-1.175 19.615 3.729 21.539-1.851 1.925-5.581-26.206-5.484-27.621-1.924-1.415 3.56 0 12.601 0 12.601z" fill="#2C3A64"/><path d="M134.495 306.07s1.929 58.928-.955 92.555c-2.885 33.627.022 80.419.022 80.419s9.224 5.086 19.223 0c0 0 10.967-64.961 10.898-80.419-.075-16.463 4.358-41.558 4.358-41.558L158 307.539l-23.505-1.469zm68.22 172.974s-9.221 5.091-19.222 0c0 0-10.963-64.961-10.896-80.419.032-6.955-2.091-24.09-4.556-41.558L158 307.539l45.378-1.57s-3.522 59.036-.638 92.656c2.885 33.627-.025 80.419-.025 80.419z" fill="#2B478B"/><path d="M146.654 317.764c-6.932-.92-11.901-1.891-11.901-1.891s-3.691.324-1.512-17.888c1.659-13.859 1.14-26.372.771-39.248-.043-1.432-.011-3.125.076-5.01 1.062 1.703 12.893 20.817 16.077 35.023 2.319 10.362-1.179 22.566-3.511 29.014z" fill="#ED7D2B"/><path d="M195.324 210.502l.002.025a121.523 121.523 0 00-15.582-2.877c-4.253 5.653-7.306 6.965-11.196 8.505-6.256-.866-11.529-8.577-11.529-8.755-6.817.699-11.414 1.95-13.284 2.532-.37.045-20.365 2.688-48.667 60.321 0 0 1.524 5.306 8.947 14.561 5.28 6.578 13.552 15.159 26.384 25.244 0 0 1.21-2.588 2.314-6.779 0 0-7.626-14.849-12.218-24.902-2.231-4.895-3.746-8.651-3.313-9.012.827-.687 10.053-8.7 16.865-14.623a60.726 60.726 0 00-.034 3.995c.37 12.876.888 25.389-.77 39.248-2.18 18.212 1.512 17.888 1.512 17.888s4.969.972 11.9 1.891c6.267.841 14.141 1.637 21.386 1.637 16.615 0 34.826-3.528 34.826-3.528 5.241.065-1.47-32.633-2.45-52.307-.228-4.57-.439-8.738-.638-12.549 6.265 5.441 20.133 17.496 21.156 18.348.433.361-1.082 4.117-3.312 9.012-4.593 10.053-12.219 24.902-12.219 24.902 1.104 4.191 2.317 6.779 2.317 6.779 12.829-10.085 21.101-18.666 26.381-25.244 7.423-9.255 8.947-14.561 8.947-14.561-28.568-58.177-47.725-59.751-47.725-59.751z" fill="#F99746"/><path d="M172.598 398.625c.031-6.955-2.092-24.09-4.557-41.559 2.558-10.432 8.789-20.476 8.789-20.476 7.885 22.125-4.232 62.035-4.232 62.035z" fill="#233862"/><path d="M131.191 304.011s6.923-6.412 9.742-2.82c2.819 3.592 3.333 9.232 1.154 8.847-2.18-.386-6.666-2.435-7.306-1.409-.64 1.026-3.514 2.987-4.386 1.429-.872-1.558.796-6.047.796-6.047zm1.521-.732c-1.104 4.191-2.314 6.779-2.314 6.779-12.832-10.085-21.104-18.665-26.384-25.244 3.979-.296 9.791-1.721 16.479-6.437 4.593 10.053 12.219 24.902 12.219 24.902zm74.212.732s-6.923-6.412-9.742-2.82c-2.819 3.592-3.335 9.232-1.156 8.847 2.179-.386 6.668-2.435 7.308-1.409.64 1.026 3.514 2.987 4.386 1.429.872-1.558-.796-6.047-.796-6.047zm-1.523-.732c1.106 4.191 2.316 6.779 2.316 6.779 12.83-10.085 21.102-18.665 26.384-25.244-3.982-.296-9.793-1.721-16.48-6.437-4.592 10.053-12.22 24.902-12.22 24.902z" fill="#FFB27D"/><path d="M175.205 189.095v5.296c-2.224 1.562-4.615 2.458-6.659 2.421-1.775-.033-4.085-.904-6.325-2.387v-5.33a5.39 5.39 0 015.372-5.375h2.24a5.39 5.39 0 015.372 5.375z" fill="#2C3A64"/><path d="M220.934 269.365c-1.027-.854-14.992-12.993-21.223-18.406 0 0 6.22-4.665 10.066 2.133 3.847 6.797 11.157 16.273 11.157 16.273z" fill="#ED7D2B"/><path d="M181.351 186.967c-2.537 5.783-8.462 9.922-12.806 9.846-4.171-.075-11.306-4.78-13.431-11.145l-.018-.054-.045-.153s4.482 3.826 7.448 1.932h12.45s3.259 1.862 6.402-.426z" fill="#2C3A64"/><path d="M243.05 270.254s-1.524 5.305-8.947 14.56c-8.59-.12 8.947-14.56 8.947-14.56z" fill="#ED7D2B"/><path d="M170.056 188.448h-2.686c-.615 0-1.399-1.008-1.399-1.623 0 0 .784-.616 1.399-.616h2.686c.615 0 1.517.512 1.661.877 0 0-.374 1.362-1.661 1.362z" fill="#FFB27D"/><path d="M1202.1 496.704H4.314a1.584 1.584 0 01-1.578-1.578v-1.128a1.581 1.581 0 011.578-1.578H1202.1c.42.001.82.167 1.12.463.3.296.46.697.47 1.115v1.128c-.01.419-.17.82-.47 1.116-.3.295-.7.462-1.12.462z" fill="#2E3552"/></g><defs><clipPath id="clip0"><path fill="#fff" d="M0 0h1217v512H0z"/></clipPath></defs></svg>